<?xml version="1.0" encoding="UTF-8" standalone="yes" ?>
<svg xmlns="http://www.w3.org/2000/svg" height="452" width="452">
  <script type="text/ecmascript">
    <![CDATA[
      var shown = 1;
      function click() {
        var seq = document.getElementById("seq");
        if (shown==1) {
          seq.setAttribute("style", "visibility: hidden");
          shown = 0;
        } else {
          seq.setAttribute("style", "visibility: visible");
          shown = 1;
        }
      }
    ]]>
  </script>
  <style type="text/css">
    <![CDATA[
      .nucleotide {
        font-family: SansSerif;
      }
      .backbone {
        stroke: grey;
        fill:   none;
        stroke-width: 1.5;
      }
      .basepairs {
        stroke: red;
        fill:   none;
        stroke-width: 2.5;
      }
    ]]>
  </style>

  <rect style="stroke: white; fill: white" height="452" x="0" y="0" width="452" onclick="click(evt)" />
  <g transform="scale(3.348148,3.348148) translate(-48.500000,12.500000)">
    <polyline class="backbone" id="outline" points="
      95.074,-5.969
      84.478,3.809
      85.436,18.195
      97.235,26.481
      101.656,40.815
      106.078,55.148
      110.499,69.482
      101.084,81.816
      100.751,97.330
      109.628,110.057
      124.301,115.104
      139.129,110.530
      148.409,98.094
      148.574,82.578
      139.560,69.948
      124.833,65.060
      120.411,50.727
      115.990,36.393
      111.569,22.060
      116.650,8.567
    " />
    <g id="pairs">
      <line class="basepairs" id="4,19" x1="97.23500" y1="26.48093" x2="111.56860" y2="22.05961" />
      <line class="basepairs" id="5,18" x1="101.65633" y1="40.81453" x2="115.98992" y2="36.39320" />
      <line class="basepairs" id="6,17" x1="106.07765" y1="55.14812" x2="120.41125" y2="50.72680" />
      <line class="basepairs" id="7,16" x1="110.49899" y1="69.48171" x2="124.83257" y2="65.06039" />
    </g>
    <g transform="translate(-4.6, 4)" id="seq">
      <text class="nucleotide" x="95.074" y="-5.969">G</text>
      <text class="nucleotide" x="84.478" y="3.809">U</text>
      <text class="nucleotide" x="85.436" y="18.195">U</text>
      <text class="nucleotide" x="97.235" y="26.481">U</text>
      <text class="nucleotide" x="101.656" y="40.815">C</text>
      <text class="nucleotide" x="106.078" y="55.148">G</text>
      <text class="nucleotide" x="110.499" y="69.482">C</text>
      <text class="nucleotide" x="101.084" y="81.816">C</text>
      <text class="nucleotide" x="100.751" y="97.330">U</text>
      <text class="nucleotide" x="109.628" y="110.057">U</text>
      <text class="nucleotide" x="124.301" y="115.104">C</text>
      <text class="nucleotide" x="139.129" y="110.530">C</text>
      <text class="nucleotide" x="148.409" y="98.094">G</text>
      <text class="nucleotide" x="148.574" y="82.578">U</text>
      <text class="nucleotide" x="139.560" y="69.948">A</text>
      <text class="nucleotide" x="124.833" y="65.060">G</text>
      <text class="nucleotide" x="120.411" y="50.727">U</text>
      <text class="nucleotide" x="115.990" y="36.393">G</text>
      <text class="nucleotide" x="111.569" y="22.060">A</text>
      <text class="nucleotide" x="116.650" y="8.567">U</text>
    </g>
  </g>
<script type="text/ecmascript">
<![CDATA[
  let sequence = "GUUUCGCCUUCCGUAGUGAU";
  let structure = "...((((........)))).";
  const basepairs = [
    { i: 4, j: 19, type: "cWW" },
    { i: 5, j: 18, type: "cWW" },
    { i: 6, j: 17, type: "cWW" },
    { i: 7, j: 16, type: "cWW" }];
  const coords = [
    { x: 95.074, y: -5.969 },
    { x: 84.478, y:  3.809 },
    { x: 85.436, y: 18.195 },
    { x: 97.235, y: 26.481 },
    { x: 101.656, y: 40.815 },
    { x: 106.078, y: 55.148 },
    { x: 110.499, y: 69.482 },
    { x: 101.084, y: 81.816 },
    { x: 100.751, y: 97.330 },
    { x: 109.628, y: 110.057 },
    { x: 124.301, y: 115.104 },
    { x: 139.129, y: 110.530 },
    { x: 148.409, y: 98.094 },
    { x: 148.574, y: 82.578 },
    { x: 139.560, y: 69.948 },
    { x: 124.833, y: 65.060 },
    { x: 120.411, y: 50.727 },
    { x: 115.990, y: 36.393 },
    { x: 111.569, y: 22.060 },
    { x: 116.650, y:  8.567 }];
]]>
</script>
</svg>
