<?xml version="1.0" encoding="UTF-8" standalone="yes" ?>
<svg xmlns="http://www.w3.org/2000/svg" height="452" width="452">
  <script type="text/ecmascript">
    <![CDATA[
      var shown = 1;
      function click() {
        var seq = document.getElementById("seq");
        if (shown==1) {
          seq.setAttribute("style", "visibility: hidden");
          shown = 0;
        } else {
          seq.setAttribute("style", "visibility: visible");
          shown = 1;
        }
      }
    ]]>
  </script>
  <style type="text/css">
    <![CDATA[
      .nucleotide {
        font-family: SansSerif;
      }
      .backbone {
        stroke: grey;
        fill:   none;
        stroke-width: 1.5;
      }
      .basepairs {
        stroke: red;
        fill:   none;
        stroke-width: 2.5;
      }
    ]]>
  </style>

  <rect style="stroke: white; fill: white" height="452" x="0" y="0" width="452" onclick="click(evt)" />
  <g transform="scale(2.404255,2.404255) translate(-5.500000,1.500000)">
    <polyline class="backbone" id="outline" points="
      91.676,16.985
      98.665,31.821
      96.923,46.719
      95.182,61.618
      82.402,68.868
      76.288,82.228
      79.156,96.639
      89.920,106.641
      88.178,121.539
      86.437,136.438
      84.695,151.336
      76.851,166.366
      89.122,178.065
      103.761,169.512
      99.594,153.078
      101.335,138.179
      103.077,123.281
      104.818,108.382
      117.598,101.132
      123.712,87.772
      120.844,73.361
      110.080,63.359
      111.822,48.461
      113.563,33.562
      123.785,20.738
      117.539,5.575
    " />
    <g id="pairs">
      <line class="basepairs" id="2,24" x1="98.66470" y1="31.82086" x2="113.56327" y2="33.56226" />
      <line class="basepairs" id="3,23" x1="96.92330" y1="46.71944" x2="111.82188" y2="48.46083" />
      <line class="basepairs" id="4,22" x1="95.18191" y1="61.61800" x2="110.08048" y2="63.35940" />
      <line class="basepairs" id="8,18" x1="89.91952" y1="106.64060" x2="104.81809" y2="108.38200" />
      <line class="basepairs" id="9,17" x1="88.17812" y1="121.53918" x2="103.07670" y2="123.28056" />
      <line class="basepairs" id="10,16" x1="86.43673" y1="136.43774" x2="101.33530" y2="138.17914" />
      <line class="basepairs" id="11,15" x1="84.69534" y1="151.33633" x2="99.59391" y2="153.07771" />
    </g>
    <g transform="translate(-4.6, 4)" id="seq">
      <text class="nucleotide" x="91.676" y="16.985">C</text>
      <text class="nucleotide" x="98.665" y="31.821">C</text>
      <text class="nucleotide" x="96.923" y="46.719">A</text>
      <text class="nucleotide" x="95.182" y="61.618">G</text>
      <text class="nucleotide" x="82.402" y="68.868">G</text>
      <text class="nucleotide" x="76.288" y="82.228">G</text>
      <text class="nucleotide" x="79.156" y="96.639">U</text>
      <text class="nucleotide" x="89.920" y="106.641">A</text>
      <text class="nucleotide" x="88.178" y="121.539">U</text>
      <text class="nucleotide" x="86.437" y="136.438">C</text>
      <text class="nucleotide" x="84.695" y="151.336">C</text>
      <text class="nucleotide" x="76.851" y="166.366">A</text>
      <text class="nucleotide" x="89.122" y="178.065">A</text>
      <text class="nucleotide" x="103.761" y="169.512">A</text>
      <text class="nucleotide" x="99.594" y="153.078">G</text>
      <text class="nucleotide" x="101.335" y="138.179">G</text>
      <text class="nucleotide" x="103.077" y="123.281">A</text>
      <text class="nucleotide" x="104.818" y="108.382">U</text>
      <text class="nucleotide" x="117.598" y="101.132">C</text>
      <text class="nucleotide" x="123.712" y="87.772">A</text>
      <text class="nucleotide" x="120.844" y="73.361">A</text>
      <text class="nucleotide" x="110.080" y="63.359">C</text>
      <text class="nucleotide" x="111.822" y="48.461">U</text>
      <text class="nucleotide" x="113.563" y="33.562">G</text>
      <text class="nucleotide" x="123.785" y="20.738">C</text>
      <text class="nucleotide" x="117.539" y="5.575">A</text>
    </g>
  </g>
<script type="text/ecmascript">
<![CDATA[
  let sequence = "CCAGGGUAUCCAAAGGAUCAACUGCA";
  let structure = ".(((...((((...))))...)))..";
  const basepairs = [
    { i: 2, j: 24, type: "cWW" },
    { i: 3, j: 23, type: "cWW" },
    { i: 4, j: 22, type: "cWW" },
    { i: 8, j: 18, type: "cWW" },
    { i: 9, j: 17, type: "cWW" },
    { i: 10, j: 16, type: "cWW" },
    { i: 11, j: 15, type: "cWW" }];
  const coords = [
    { x: 91.676, y: 16.985 },
    { x: 98.665, y: 31.821 },
    { x: 96.923, y: 46.719 },
    { x: 95.182, y: 61.618 },
    { x: 82.402, y: 68.868 },
    { x: 76.288, y: 82.228 },
    { x: 79.156, y: 96.639 },
    { x: 89.920, y: 106.641 },
    { x: 88.178, y: 121.539 },
    { x: 86.437, y: 136.438 },
    { x: 84.695, y: 151.336 },
    { x: 76.851, y: 166.366 },
    { x: 89.122, y: 178.065 },
    { x: 103.761, y: 169.512 },
    { x: 99.594, y: 153.078 },
    { x: 101.335, y: 138.179 },
    { x: 103.077, y: 123.281 },
    { x: 104.818, y: 108.382 },
    { x: 117.598, y: 101.132 },
    { x: 123.712, y: 87.772 },
    { x: 120.844, y: 73.361 },
    { x: 110.080, y: 63.359 },
    { x: 111.822, y: 48.461 },
    { x: 113.563, y: 33.562 },
    { x: 123.785, y: 20.738 },
    { x: 117.539, y:  5.575 }];
]]>
</script>
</svg>
