<?xml version="1.0" encoding="UTF-8" standalone="yes" ?>
<svg xmlns="http://www.w3.org/2000/svg" height="452" width="452">
  <script type="text/ecmascript">
    <![CDATA[
      var shown = 1;
      function click() {
        var seq = document.getElementById("seq");
        if (shown==1) {
          seq.setAttribute("style", "visibility: hidden");
          shown = 0;
        } else {
          seq.setAttribute("style", "visibility: visible");
          shown = 1;
        }
      }
    ]]>
  </script>
  <style type="text/css">
    <![CDATA[
      .nucleotide {
        font-family: SansSerif;
      }
      .backbone {
        stroke: grey;
        fill:   none;
        stroke-width: 1.5;
      }
      .basepairs {
        stroke: red;
        fill:   none;
        stroke-width: 2.5;
      }
    ]]>
  </style>

  <rect style="stroke: white; fill: white" height="452" x="0" y="0" width="452" onclick="click(evt)" />
  <g transform="scale(2.897436,2.897436) translate(3.500000,-15.000000)">
    <polyline class="backbone" id="outline" points="
      65.576,56.463
      57.852,69.237
      54.693,83.827
      56.441,98.652
      42.927,105.161
      28.748,98.565
      13.661,102.675
      4.788,115.552
      6.319,131.114
      17.531,142.015
      33.131,143.106
      45.752,133.873
      49.435,118.675
      62.949,112.167
      73.450,122.777
      86.827,129.404
      101.630,131.330
      116.257,128.346
      129.122,120.775
      138.834,109.438
      144.340,95.563
      145.043,80.651
      140.867,66.319
      132.265,54.119
      120.169,45.372
      105.888,41.025
      90.969,41.549
    " />
    <g id="pairs">
      <line class="basepairs" id="4,14" x1="56.44120" y1="98.65244" x2="62.94946" y2="112.16698" />
      <line class="basepairs" id="5,13" x1="42.92667" y1="105.16070" x2="49.43493" y2="118.67523" />
    </g>
    <g transform="translate(-4.6, 4)" id="seq">
      <text class="nucleotide" x="65.576" y="56.463">U</text>
      <text class="nucleotide" x="57.852" y="69.237">C</text>
      <text class="nucleotide" x="54.693" y="83.827">C</text>
      <text class="nucleotide" x="56.441" y="98.652">C</text>
      <text class="nucleotide" x="42.927" y="105.161">C</text>
      <text class="nucleotide" x="28.748" y="98.565">U</text>
      <text class="nucleotide" x="13.661" y="102.675">U</text>
      <text class="nucleotide" x="4.788" y="115.552">C</text>
      <text class="nucleotide" x="6.319" y="131.114">U</text>
      <text class="nucleotide" x="17.531" y="142.015">U</text>
      <text class="nucleotide" x="33.131" y="143.106">A</text>
      <text class="nucleotide" x="45.752" y="133.873">U</text>
      <text class="nucleotide" x="49.435" y="118.675">G</text>
      <text class="nucleotide" x="62.949" y="112.167">G</text>
      <text class="nucleotide" x="73.450" y="122.777">C</text>
      <text class="nucleotide" x="86.827" y="129.404">C</text>
      <text class="nucleotide" x="101.630" y="131.330">U</text>
      <text class="nucleotide" x="116.257" y="128.346">G</text>
      <text class="nucleotide" x="129.122" y="120.775">U</text>
      <text class="nucleotide" x="138.834" y="109.438">U</text>
      <text class="nucleotide" x="144.340" y="95.563">U</text>
      <text class="nucleotide" x="145.043" y="80.651">U</text>
      <text class="nucleotide" x="140.867" y="66.319">U</text>
      <text class="nucleotide" x="132.265" y="54.119">C</text>
      <text class="nucleotide" x="120.169" y="45.372">A</text>
      <text class="nucleotide" x="105.888" y="41.025">A</text>
      <text class="nucleotide" x="90.969" y="41.549">C</text>
    </g>
  </g>
<script type="text/ecmascript">
<![CDATA[
  let sequence = "UCCCCUUCUUAUGGCCUGUUUUUCAAC";
  let structure = "...((.......)).............";
  const basepairs = [
    { i: 4, j: 14, type: "cWW" },
    { i: 5, j: 13, type: "cWW" }];
  const coords = [
    { x: 65.576, y: 56.463 },
    { x: 57.852, y: 69.237 },
    { x: 54.693, y: 83.827 },
    { x: 56.441, y: 98.652 },
    { x: 42.927, y: 105.161 },
    { x: 28.748, y: 98.565 },
    { x: 13.661, y: 102.675 },
    { x:  4.788, y: 115.552 },
    { x:  6.319, y: 131.114 },
    { x: 17.531, y: 142.015 },
    { x: 33.131, y: 143.106 },
    { x: 45.752, y: 133.873 },
    { x: 49.435, y: 118.675 },
    { x: 62.949, y: 112.167 },
    { x: 73.450, y: 122.777 },
    { x: 86.827, y: 129.404 },
    { x: 101.630, y: 131.330 },
    { x: 116.257, y: 128.346 },
    { x: 129.122, y: 120.775 },
    { x: 138.834, y: 109.438 },
    { x: 144.340, y: 95.563 },
    { x: 145.043, y: 80.651 },
    { x: 140.867, y: 66.319 },
    { x: 132.265, y: 54.119 },
    { x: 120.169, y: 45.372 },
    { x: 105.888, y: 41.025 },
    { x: 90.969, y: 41.549 }];
]]>
</script>
</svg>
