<?xml version="1.0" encoding="UTF-8" standalone="yes" ?>
<svg xmlns="http://www.w3.org/2000/svg" height="452" width="452">
  <script type="text/ecmascript">
    <![CDATA[
      var shown = 1;
      function click() {
        var seq = document.getElementById("seq");
        if (shown==1) {
          seq.setAttribute("style", "visibility: hidden");
          shown = 0;
        } else {
          seq.setAttribute("style", "visibility: visible");
          shown = 1;
        }
      }
    ]]>
  </script>
  <style type="text/css">
    <![CDATA[
      .nucleotide {
        font-family: SansSerif;
      }
      .backbone {
        stroke: grey;
        fill:   none;
        stroke-width: 1.5;
      }
      .basepairs {
        stroke: red;
        fill:   none;
        stroke-width: 2.5;
      }
    ]]>
  </style>

  <rect style="stroke: white; fill: white" height="452" x="0" y="0" width="452" onclick="click(evt)" />
  <g transform="scale(3.373134,3.373134) translate(-22.500000,-8.500000)">
    <polyline class="backbone" id="outline" points="
      76.669,23.834
      67.640,35.665
      64.200,50.145
      66.945,64.772
      75.398,77.021
      67.605,89.837
      59.811,102.654
      45.174,110.049
      44.530,126.436
      58.542,134.956
      72.795,126.846
      72.627,110.448
      80.421,97.631
      88.215,84.815
      102.979,86.686
      117.229,82.393
      128.504,72.677
      134.854,59.217
      135.185,44.338
      129.438,30.610
      118.606,20.403
      104.561,15.482
    " />
    <g id="pairs">
      <line class="basepairs" id="5,14" x1="75.39828" y1="77.02118" x2="88.21457" y2="84.81493" />
      <line class="basepairs" id="6,13" x1="67.60452" y1="89.83746" x2="80.42081" y2="97.63123" />
      <line class="basepairs" id="7,12" x1="59.81076" y1="102.65376" x2="72.62705" y2="110.44752" />
    </g>
    <g transform="translate(-4.6, 4)" id="seq">
      <text class="nucleotide" x="76.669" y="23.834">G</text>
      <text class="nucleotide" x="67.640" y="35.665">G</text>
      <text class="nucleotide" x="64.200" y="50.145">C</text>
      <text class="nucleotide" x="66.945" y="64.772">G</text>
      <text class="nucleotide" x="75.398" y="77.021">C</text>
      <text class="nucleotide" x="67.605" y="89.837">C</text>
      <text class="nucleotide" x="59.811" y="102.654">G</text>
      <text class="nucleotide" x="45.174" y="110.049">G</text>
      <text class="nucleotide" x="44.530" y="126.436">A</text>
      <text class="nucleotide" x="58.542" y="134.956">C</text>
      <text class="nucleotide" x="72.795" y="126.846">A</text>
      <text class="nucleotide" x="72.627" y="110.448">C</text>
      <text class="nucleotide" x="80.421" y="97.631">G</text>
      <text class="nucleotide" x="88.215" y="84.815">G</text>
      <text class="nucleotide" x="102.979" y="86.686">A</text>
      <text class="nucleotide" x="117.229" y="82.393">A</text>
      <text class="nucleotide" x="128.504" y="72.677">G</text>
      <text class="nucleotide" x="134.854" y="59.217">G</text>
      <text class="nucleotide" x="135.185" y="44.338">A</text>
      <text class="nucleotide" x="129.438" y="30.610">U</text>
      <text class="nucleotide" x="118.606" y="20.403">A</text>
      <text class="nucleotide" x="104.561" y="15.482">A</text>
    </g>
  </g>
<script type="text/ecmascript">
<![CDATA[
  let sequence = "GGCGCCGGACACGGAAGGAUAA";
  let structure = "....(((....)))........";
  const basepairs = [
    { i: 5, j: 14, type: "cWW" },
    { i: 6, j: 13, type: "cWW" },
    { i: 7, j: 12, type: "cWW" }];
  const coords = [
    { x: 76.669, y: 23.834 },
    { x: 67.640, y: 35.665 },
    { x: 64.200, y: 50.145 },
    { x: 66.945, y: 64.772 },
    { x: 75.398, y: 77.021 },
    { x: 67.605, y: 89.837 },
    { x: 59.811, y: 102.654 },
    { x: 45.174, y: 110.049 },
    { x: 44.530, y: 126.436 },
    { x: 58.542, y: 134.956 },
    { x: 72.795, y: 126.846 },
    { x: 72.627, y: 110.448 },
    { x: 80.421, y: 97.631 },
    { x: 88.215, y: 84.815 },
    { x: 102.979, y: 86.686 },
    { x: 117.229, y: 82.393 },
    { x: 128.504, y: 72.677 },
    { x: 134.854, y: 59.217 },
    { x: 135.185, y: 44.338 },
    { x: 129.438, y: 30.610 },
    { x: 118.606, y: 20.403 },
    { x: 104.561, y: 15.482 }];
]]>
</script>
</svg>
