<?xml version="1.0" encoding="UTF-8" standalone="yes" ?>
<svg xmlns="http://www.w3.org/2000/svg" height="452" width="452">
  <script type="text/ecmascript">
    <![CDATA[
      var shown = 1;
      function click() {
        var seq = document.getElementById("seq");
        if (shown==1) {
          seq.setAttribute("style", "visibility: hidden");
          shown = 0;
        } else {
          seq.setAttribute("style", "visibility: visible");
          shown = 1;
        }
      }
    ]]>
  </script>
  <style type="text/css">
    <![CDATA[
      .nucleotide {
        font-family: SansSerif;
      }
      .backbone {
        stroke: grey;
        fill:   none;
        stroke-width: 1.5;
      }
      .basepairs {
        stroke: red;
        fill:   none;
        stroke-width: 2.5;
      }
    ]]>
  </style>

  <rect style="stroke: white; fill: white" height="452" x="0" y="0" width="452" onclick="click(evt)" />
  <g transform="scale(2.756098,2.756098) translate(-15.500000,-14.500000)">
    <polyline class="backbone" id="outline" points="
      107.807,53.183
      112.629,67.765
      102.592,78.913
      89.355,83.415
      86.261,97.050
      71.277,102.129
      68.510,116.764
      58.473,127.911
      48.436,139.059
      32.681,143.609
      29.007,159.591
      41.194,170.564
      56.705,165.240
      59.584,149.096
      69.621,137.948
      79.658,126.801
      93.924,122.520
      97.408,107.087
      110.645,102.585
      113.739,88.950
      123.776,77.802
      138.783,81.074
      153.410,76.389
      163.722,65.007
      166.947,49.991
      162.216,35.379
      150.802,25.102
      135.776,21.924
      121.178,26.701
    " />
    <g id="pairs">
      <line class="basepairs" id="2,21" x1="112.62910" y1="67.76538" x2="123.77628" y2="77.80234" />
      <line class="basepairs" id="3,20" x1="102.59215" y1="78.91255" x2="113.73932" y2="88.94951" />
      <line class="basepairs" id="5,18" x1="86.26068" y1="97.05049" x2="97.40785" y2="107.08745" />
      <line class="basepairs" id="7,16" x1="68.51035" y1="116.76422" x2="79.65752" y2="126.80118" />
      <line class="basepairs" id="8,15" x1="58.47340" y1="127.91139" x2="69.62057" y2="137.94835" />
      <line class="basepairs" id="9,14" x1="48.43644" y1="139.05856" x2="59.58361" y2="149.09552" />
    </g>
    <g transform="translate(-4.6, 4)" id="seq">
      <text class="nucleotide" x="107.807" y="53.183">A</text>
      <text class="nucleotide" x="112.629" y="67.765">U</text>
      <text class="nucleotide" x="102.592" y="78.913">C</text>
      <text class="nucleotide" x="89.355" y="83.415">A</text>
      <text class="nucleotide" x="86.261" y="97.050">G</text>
      <text class="nucleotide" x="71.277" y="102.129">G</text>
      <text class="nucleotide" x="68.510" y="116.764">G</text>
      <text class="nucleotide" x="58.473" y="127.911">C</text>
      <text class="nucleotide" x="48.436" y="139.059">U</text>
      <text class="nucleotide" x="32.681" y="143.609">A</text>
      <text class="nucleotide" x="29.007" y="159.591">A</text>
      <text class="nucleotide" x="41.194" y="170.564">A</text>
      <text class="nucleotide" x="56.705" y="165.240">G</text>
      <text class="nucleotide" x="59.584" y="149.096">A</text>
      <text class="nucleotide" x="69.621" y="137.948">G</text>
      <text class="nucleotide" x="79.658" y="126.801">U</text>
      <text class="nucleotide" x="93.924" y="122.520">G</text>
      <text class="nucleotide" x="97.408" y="107.087">C</text>
      <text class="nucleotide" x="110.645" y="102.585">A</text>
      <text class="nucleotide" x="113.739" y="88.950">G</text>
      <text class="nucleotide" x="123.776" y="77.802">A</text>
      <text class="nucleotide" x="138.783" y="81.074">G</text>
      <text class="nucleotide" x="153.410" y="76.389">U</text>
      <text class="nucleotide" x="163.722" y="65.007">U</text>
      <text class="nucleotide" x="166.947" y="49.991">A</text>
      <text class="nucleotide" x="162.216" y="35.379">C</text>
      <text class="nucleotide" x="150.802" y="25.102">U</text>
      <text class="nucleotide" x="135.776" y="21.924">A</text>
      <text class="nucleotide" x="121.178" y="26.701">G</text>
    </g>
  </g>
<script type="text/ecmascript">
<![CDATA[
  let sequence = "AUCAGGGCUAAAGAGUGCAGAGUUACUAG";
  let structure = ".((.(.(((....))).).))........";
  const basepairs = [
    { i: 2, j: 21, type: "cWW" },
    { i: 3, j: 20, type: "cWW" },
    { i: 5, j: 18, type: "cWW" },
    { i: 7, j: 16, type: "cWW" },
    { i: 8, j: 15, type: "cWW" },
    { i: 9, j: 14, type: "cWW" }];
  const coords = [
    { x: 107.807, y: 53.183 },
    { x: 112.629, y: 67.765 },
    { x: 102.592, y: 78.913 },
    { x: 89.355, y: 83.415 },
    { x: 86.261, y: 97.050 },
    { x: 71.277, y: 102.129 },
    { x: 68.510, y: 116.764 },
    { x: 58.473, y: 127.911 },
    { x: 48.436, y: 139.059 },
    { x: 32.681, y: 143.609 },
    { x: 29.007, y: 159.591 },
    { x: 41.194, y: 170.564 },
    { x: 56.705, y: 165.240 },
    { x: 59.584, y: 149.096 },
    { x: 69.621, y: 137.948 },
    { x: 79.658, y: 126.801 },
    { x: 93.924, y: 122.520 },
    { x: 97.408, y: 107.087 },
    { x: 110.645, y: 102.585 },
    { x: 113.739, y: 88.950 },
    { x: 123.776, y: 77.802 },
    { x: 138.783, y: 81.074 },
    { x: 153.410, y: 76.389 },
    { x: 163.722, y: 65.007 },
    { x: 166.947, y: 49.991 },
    { x: 162.216, y: 35.379 },
    { x: 150.802, y: 25.102 },
    { x: 135.776, y: 21.924 },
    { x: 121.178, y: 26.701 }];
]]>
</script>
</svg>
