<?xml version="1.0" encoding="UTF-8" standalone="yes" ?>
<svg xmlns="http://www.w3.org/2000/svg" height="452" width="452">
  <script type="text/ecmascript">
    <![CDATA[
      var shown = 1;
      function click() {
        var seq = document.getElementById("seq");
        if (shown==1) {
          seq.setAttribute("style", "visibility: hidden");
          shown = 0;
        } else {
          seq.setAttribute("style", "visibility: visible");
          shown = 1;
        }
      }
    ]]>
  </script>
  <style type="text/css">
    <![CDATA[
      .nucleotide {
        font-family: SansSerif;
      }
      .backbone {
        stroke: grey;
        fill:   none;
        stroke-width: 1.5;
      }
      .basepairs {
        stroke: red;
        fill:   none;
        stroke-width: 2.5;
      }
    ]]>
  </style>

  <rect style="stroke: white; fill: white" height="452" x="0" y="0" width="452" onclick="click(evt)" />
  <g transform="scale(2.658823,2.658823) translate(-12.500000,-7.000000)">
    <polyline class="backbone" id="outline" points="
      88.434,69.964
      82.380,79.491
      67.608,82.096
      56.540,71.220
      41.188,68.961
      27.456,76.186
      20.624,90.118
      23.318,105.399
      34.504,116.154
      49.879,118.247
      63.532,110.873
      70.213,96.868
      84.985,94.263
      101.058,102.157
      116.105,92.451
      131.080,93.323
      140.272,105.973
      155.458,109.705
      169.467,102.757
      175.684,88.408
      171.174,73.435
      158.067,64.907
      142.551,66.851
      131.952,78.348
      116.977,77.476
      109.858,68.716
    " />
    <g id="pairs">
    </g>
    <g transform="translate(-4.6, 4)" id="seq">
      <text class="nucleotide" x="88.434" y="69.964">U</text>
      <text class="nucleotide" x="82.380" y="79.491">G</text>
      <text class="nucleotide" x="67.608" y="82.096">G</text>
      <text class="nucleotide" x="56.540" y="71.220">U</text>
      <text class="nucleotide" x="41.188" y="68.961">G</text>
      <text class="nucleotide" x="27.456" y="76.186">G</text>
      <text class="nucleotide" x="20.624" y="90.118">U</text>
      <text class="nucleotide" x="23.318" y="105.399">G</text>
      <text class="nucleotide" x="34.504" y="116.154">G</text>
      <text class="nucleotide" x="49.879" y="118.247">U</text>
      <text class="nucleotide" x="63.532" y="110.873">U</text>
      <text class="nucleotide" x="70.213" y="96.868">G</text>
      <text class="nucleotide" x="84.985" y="94.263">G</text>
      <text class="nucleotide" x="101.058" y="102.157">U</text>
      <text class="nucleotide" x="116.105" y="92.451">G</text>
      <text class="nucleotide" x="131.080" y="93.323">G</text>
      <text class="nucleotide" x="140.272" y="105.973">U</text>
      <text class="nucleotide" x="155.458" y="109.705">G</text>
      <text class="nucleotide" x="169.467" y="102.757">G</text>
      <text class="nucleotide" x="175.684" y="88.408">U</text>
      <text class="nucleotide" x="171.174" y="73.435">G</text>
      <text class="nucleotide" x="158.067" y="64.907">G</text>
      <text class="nucleotide" x="142.551" y="66.851">U</text>
      <text class="nucleotide" x="131.952" y="78.348">G</text>
      <text class="nucleotide" x="116.977" y="77.476">G</text>
      <text class="nucleotide" x="109.858" y="68.716">U</text>
    </g>
  </g>
<script type="text/ecmascript">
<![CDATA[
  let sequence = "UGGUGGUGGUUGGUGGUGGUGGUGGU";
  let structure = ".++.++.++..+~.++.++.++.+~.";
  const basepairs = [
];
  const coords = [
    { x: 88.434, y: 69.964 },
    { x: 82.380, y: 79.491 },
    { x: 67.608, y: 82.096 },
    { x: 56.540, y: 71.220 },
    { x: 41.188, y: 68.961 },
    { x: 27.456, y: 76.186 },
    { x: 20.624, y: 90.118 },
    { x: 23.318, y: 105.399 },
    { x: 34.504, y: 116.154 },
    { x: 49.879, y: 118.247 },
    { x: 63.532, y: 110.873 },
    { x: 70.213, y: 96.868 },
    { x: 84.985, y: 94.263 },
    { x: 101.058, y: 102.157 },
    { x: 116.105, y: 92.451 },
    { x: 131.080, y: 93.323 },
    { x: 140.272, y: 105.973 },
    { x: 155.458, y: 109.705 },
    { x: 169.467, y: 102.757 },
    { x: 175.684, y: 88.408 },
    { x: 171.174, y: 73.435 },
    { x: 158.067, y: 64.907 },
    { x: 142.551, y: 66.851 },
    { x: 131.952, y: 78.348 },
    { x: 116.977, y: 77.476 },
    { x: 109.858, y: 68.716 }];
]]>
</script>
</svg>
