<?xml version="1.0" encoding="UTF-8" standalone="yes" ?>
<svg xmlns="http://www.w3.org/2000/svg" height="452" width="452">
  <script type="text/ecmascript">
    <![CDATA[
      var shown = 1;
      function click() {
        var seq = document.getElementById("seq");
        if (shown==1) {
          seq.setAttribute("style", "visibility: hidden");
          shown = 0;
        } else {
          seq.setAttribute("style", "visibility: visible");
          shown = 1;
        }
      }
    ]]>
  </script>
  <style type="text/css">
    <![CDATA[
      .nucleotide {
        font-family: SansSerif;
      }
      .backbone {
        stroke: grey;
        fill:   none;
        stroke-width: 1.5;
      }
      .basepairs {
        stroke: red;
        fill:   none;
        stroke-width: 2.5;
      }
    ]]>
  </style>

  <rect style="stroke: white; fill: white" height="452" x="0" y="0" width="452" onclick="click(evt)" />
  <g transform="scale(2.860759,2.860759) translate(-32.000000,-5.500000)">
    <polyline class="backbone" id="outline" points="
      84.611,12.604
      78.506,27.825
      88.847,40.553
      90.727,55.434
      83.889,65.767
      86.211,77.937
      96.372,85.027
      100.102,99.555
      89.073,110.244
      84.880,125.020
      88.653,139.908
      99.376,150.904
      114.165,155.050
      129.042,151.230
      140.004,140.473
      144.103,125.671
      140.237,110.807
      129.445,99.878
      114.631,95.825
      110.900,81.296
      116.141,65.921
      105.608,53.554
      103.728,38.673
      110.579,23.773
    " />
    <g id="pairs">
      <line class="basepairs" id="3,23" x1="88.84666" y1="40.55275" x2="103.72839" y2="38.67276" />
      <line class="basepairs" id="4,22" x1="90.72667" y1="55.43447" x2="105.60838" y2="53.55447" />
    </g>
    <g transform="translate(-4.6, 4)" id="seq">
      <text class="nucleotide" x="84.611" y="12.604">G</text>
      <text class="nucleotide" x="78.506" y="27.825">G</text>
      <text class="nucleotide" x="88.847" y="40.553">C</text>
      <text class="nucleotide" x="90.727" y="55.434">G</text>
      <text class="nucleotide" x="83.889" y="65.767">A</text>
      <text class="nucleotide" x="86.211" y="77.937">G</text>
      <text class="nucleotide" x="96.372" y="85.027">G</text>
      <text class="nucleotide" x="100.102" y="99.555">G</text>
      <text class="nucleotide" x="89.073" y="110.244">A</text>
      <text class="nucleotide" x="84.880" y="125.020">A</text>
      <text class="nucleotide" x="88.653" y="139.908">A</text>
      <text class="nucleotide" x="99.376" y="150.904">G</text>
      <text class="nucleotide" x="114.165" y="155.050">G</text>
      <text class="nucleotide" x="129.042" y="151.230">G</text>
      <text class="nucleotide" x="140.004" y="140.473">G</text>
      <text class="nucleotide" x="144.103" y="125.671">G</text>
      <text class="nucleotide" x="140.237" y="110.807">G</text>
      <text class="nucleotide" x="129.445" y="99.878">C</text>
      <text class="nucleotide" x="114.631" y="95.825">G</text>
      <text class="nucleotide" x="110.900" y="81.296">G</text>
      <text class="nucleotide" x="116.141" y="65.921">A</text>
      <text class="nucleotide" x="105.608" y="53.554">C</text>
      <text class="nucleotide" x="103.728" y="38.673">G</text>
      <text class="nucleotide" x="110.579" y="23.773">A</text>
    </g>
  </g>
<script type="text/ecmascript">
<![CDATA[
  let sequence = "GGCGAGGGAAAGGGGGGCGGACGA";
  let structure = "..((..++...++.++..+~.)).";
  const basepairs = [
    { i: 3, j: 23, type: "cWW" },
    { i: 4, j: 22, type: "cWW" }];
  const coords = [
    { x: 84.611, y: 12.604 },
    { x: 78.506, y: 27.825 },
    { x: 88.847, y: 40.553 },
    { x: 90.727, y: 55.434 },
    { x: 83.889, y: 65.767 },
    { x: 86.211, y: 77.937 },
    { x: 96.372, y: 85.027 },
    { x: 100.102, y: 99.555 },
    { x: 89.073, y: 110.244 },
    { x: 84.880, y: 125.020 },
    { x: 88.653, y: 139.908 },
    { x: 99.376, y: 150.904 },
    { x: 114.165, y: 155.050 },
    { x: 129.042, y: 151.230 },
    { x: 140.004, y: 140.473 },
    { x: 144.103, y: 125.671 },
    { x: 140.237, y: 110.807 },
    { x: 129.445, y: 99.878 },
    { x: 114.631, y: 95.825 },
    { x: 110.900, y: 81.296 },
    { x: 116.141, y: 65.921 },
    { x: 105.608, y: 53.554 },
    { x: 103.728, y: 38.673 },
    { x: 110.579, y: 23.773 }];
]]>
</script>
</svg>
