<?xml version="1.0" encoding="UTF-8" standalone="yes" ?>
<svg xmlns="http://www.w3.org/2000/svg" height="452" width="452">
  <script type="text/ecmascript">
    <![CDATA[
      var shown = 1;
      function click() {
        var seq = document.getElementById("seq");
        if (shown==1) {
          seq.setAttribute("style", "visibility: hidden");
          shown = 0;
        } else {
          seq.setAttribute("style", "visibility: visible");
          shown = 1;
        }
      }
    ]]>
  </script>
  <style type="text/css">
    <![CDATA[
      .nucleotide {
        font-family: SansSerif;
      }
      .backbone {
        stroke: grey;
        fill:   none;
        stroke-width: 1.5;
      }
      .basepairs {
        stroke: red;
        fill:   none;
        stroke-width: 2.5;
      }
    ]]>
  </style>

  <rect style="stroke: white; fill: white" height="452" x="0" y="0" width="452" onclick="click(evt)" />
  <g transform="scale(3.138889,3.138889) translate(-7.000000,-14.500000)">
    <polyline class="backbone" id="outline" points="
      99.367,45.308
      95.636,59.837
      89.250,73.409
      80.433,85.545
      71.616,97.680
      56.220,96.696
      42.748,104.213
      35.498,117.831
      36.784,133.204
      46.196,145.428
      60.730,150.602
      75.748,147.074
      86.459,135.971
      89.444,120.835
      83.751,106.497
      92.568,94.361
      101.385,82.226
      106.673,81.061
      110.947,76.834
      112.465,70.401
      110.165,63.567
      113.896,49.038
      123.691,35.201
      113.106,21.957
    " />
    <g id="pairs">
      <line class="basepairs" id="1,22" x1="99.36680" y1="45.30811" x2="113.89555" y2="49.03846" />
      <line class="basepairs" id="2,21" x1="95.63645" y1="59.83686" x2="110.16520" y2="63.56721" />
    </g>
    <g transform="translate(-4.6, 4)" id="seq">
      <text class="nucleotide" x="99.367" y="45.308">G</text>
      <text class="nucleotide" x="95.636" y="59.837">G</text>
      <text class="nucleotide" x="89.250" y="73.409">G</text>
      <text class="nucleotide" x="80.433" y="85.545">G</text>
      <text class="nucleotide" x="71.616" y="97.680">G</text>
      <text class="nucleotide" x="56.220" y="96.696">U</text>
      <text class="nucleotide" x="42.748" y="104.213">G</text>
      <text class="nucleotide" x="35.498" y="117.831">G</text>
      <text class="nucleotide" x="36.784" y="133.204">G</text>
      <text class="nucleotide" x="46.196" y="145.428">U</text>
      <text class="nucleotide" x="60.730" y="150.602">G</text>
      <text class="nucleotide" x="75.748" y="147.074">G</text>
      <text class="nucleotide" x="86.459" y="135.971">G</text>
      <text class="nucleotide" x="89.444" y="120.835">U</text>
      <text class="nucleotide" x="83.751" y="106.497">G</text>
      <text class="nucleotide" x="92.568" y="94.361">G</text>
      <text class="nucleotide" x="101.385" y="82.226">G</text>
      <text class="nucleotide" x="106.673" y="81.061">U</text>
      <text class="nucleotide" x="110.947" y="76.834">A</text>
      <text class="nucleotide" x="112.465" y="70.401">C</text>
      <text class="nucleotide" x="110.165" y="63.567">C</text>
      <text class="nucleotide" x="113.896" y="49.038">C</text>
      <text class="nucleotide" x="123.691" y="35.201">C</text>
      <text class="nucleotide" x="113.106" y="21.957">C</text>
    </g>
  </g>
<script type="text/ecmascript">
<![CDATA[
  let sequence = "GGGGGUGGGUGGGUGGGUACCCCC";
  let structure = "((+++.+++.+++.++~...))..";
  const basepairs = [
    { i: 1, j: 22, type: "cWW" },
    { i: 2, j: 21, type: "cWW" }];
  const coords = [
    { x: 99.367, y: 45.308 },
    { x: 95.636, y: 59.837 },
    { x: 89.250, y: 73.409 },
    { x: 80.433, y: 85.545 },
    { x: 71.616, y: 97.680 },
    { x: 56.220, y: 96.696 },
    { x: 42.748, y: 104.213 },
    { x: 35.498, y: 117.831 },
    { x: 36.784, y: 133.204 },
    { x: 46.196, y: 145.428 },
    { x: 60.730, y: 150.602 },
    { x: 75.748, y: 147.074 },
    { x: 86.459, y: 135.971 },
    { x: 89.444, y: 120.835 },
    { x: 83.751, y: 106.497 },
    { x: 92.568, y: 94.361 },
    { x: 101.385, y: 82.226 },
    { x: 106.673, y: 81.061 },
    { x: 110.947, y: 76.834 },
    { x: 112.465, y: 70.401 },
    { x: 110.165, y: 63.567 },
    { x: 113.896, y: 49.038 },
    { x: 123.691, y: 35.201 },
    { x: 113.106, y: 21.957 }];
]]>
</script>
</svg>
