<?xml version="1.0" encoding="UTF-8" standalone="yes" ?>
<svg xmlns="http://www.w3.org/2000/svg" height="452" width="452">
  <script type="text/ecmascript">
    <![CDATA[
      var shown = 1;
      function click() {
        var seq = document.getElementById("seq");
        if (shown==1) {
          seq.setAttribute("style", "visibility: hidden");
          shown = 0;
        } else {
          seq.setAttribute("style", "visibility: visible");
          shown = 1;
        }
      }
    ]]>
  </script>
  <style type="text/css">
    <![CDATA[
      .nucleotide {
        font-family: SansSerif;
      }
      .backbone {
        stroke: grey;
        fill:   none;
        stroke-width: 1.5;
      }
      .basepairs {
        stroke: red;
        fill:   none;
        stroke-width: 2.5;
      }
    ]]>
  </style>

  <rect style="stroke: white; fill: white" height="452" x="0" y="0" width="452" onclick="click(evt)" />
  <g transform="scale(3.766667,3.766667) translate(-27.000000,-7.500000)">
    <polyline class="backbone" id="outline" points="
      81.067,24.842
      78.959,39.349
      86.645,51.831
      82.010,66.097
      67.064,69.920
      56.573,81.231
      53.886,96.423
      59.860,110.647
      72.588,119.364
      88.010,119.793
      101.203,111.797
      107.959,97.928
      106.121,82.610
      96.276,70.732
      100.911,56.467
      114.467,50.886
      121.288,37.910
      118.200,23.580
      106.640,14.566
    " />
    <g id="pairs">
    </g>
    <g transform="translate(-4.6, 4)" id="seq">
      <text class="nucleotide" x="81.067" y="24.842">U</text>
      <text class="nucleotide" x="78.959" y="39.349">G</text>
      <text class="nucleotide" x="86.645" y="51.831">G</text>
      <text class="nucleotide" x="82.010" y="66.097">G</text>
      <text class="nucleotide" x="67.064" y="69.920">U</text>
      <text class="nucleotide" x="56.573" y="81.231">G</text>
      <text class="nucleotide" x="53.886" y="96.423">G</text>
      <text class="nucleotide" x="59.860" y="110.647">U</text>
      <text class="nucleotide" x="72.588" y="119.364">C</text>
      <text class="nucleotide" x="88.010" y="119.793">A</text>
      <text class="nucleotide" x="101.203" y="111.797">G</text>
      <text class="nucleotide" x="107.959" y="97.928">G</text>
      <text class="nucleotide" x="106.121" y="82.610">U</text>
      <text class="nucleotide" x="96.276" y="70.732">G</text>
      <text class="nucleotide" x="100.911" y="56.467">G</text>
      <text class="nucleotide" x="114.467" y="50.886">G</text>
      <text class="nucleotide" x="121.288" y="37.910">A</text>
      <text class="nucleotide" x="118.200" y="23.580">U</text>
      <text class="nucleotide" x="106.640" y="14.566">A</text>
    </g>
  </g>
<script type="text/ecmascript">
<![CDATA[
  let sequence = "UGGGUGGUCAGGUGGGAUA";
  let structure = "..++.++...++.+~....";
  const basepairs = [
];
  const coords = [
    { x: 81.067, y: 24.842 },
    { x: 78.959, y: 39.349 },
    { x: 86.645, y: 51.831 },
    { x: 82.010, y: 66.097 },
    { x: 67.064, y: 69.920 },
    { x: 56.573, y: 81.231 },
    { x: 53.886, y: 96.423 },
    { x: 59.860, y: 110.647 },
    { x: 72.588, y: 119.364 },
    { x: 88.010, y: 119.793 },
    { x: 101.203, y: 111.797 },
    { x: 107.959, y: 97.928 },
    { x: 106.121, y: 82.610 },
    { x: 96.276, y: 70.732 },
    { x: 100.911, y: 56.467 },
    { x: 114.467, y: 50.886 },
    { x: 121.288, y: 37.910 },
    { x: 118.200, y: 23.580 },
    { x: 106.640, y: 14.566 }];
]]>
</script>
</svg>
