<?xml version="1.0" encoding="UTF-8" standalone="yes" ?>
<svg xmlns="http://www.w3.org/2000/svg" height="452" width="452">
  <script type="text/ecmascript">
    <![CDATA[
      var shown = 1;
      function click() {
        var seq = document.getElementById("seq");
        if (shown==1) {
          seq.setAttribute("style", "visibility: hidden");
          shown = 0;
        } else {
          seq.setAttribute("style", "visibility: visible");
          shown = 1;
        }
      }
    ]]>
  </script>
  <style type="text/css">
    <![CDATA[
      .nucleotide {
        font-family: SansSerif;
      }
      .backbone {
        stroke: grey;
        fill:   none;
        stroke-width: 1.5;
      }
      .basepairs {
        stroke: red;
        fill:   none;
        stroke-width: 2.5;
      }
    ]]>
  </style>

  <rect style="stroke: white; fill: white" height="452" x="0" y="0" width="452" onclick="click(evt)" />
  <g transform="scale(2.329897,2.329897) translate(-11.000000,48.500000)">
    <polyline class="backbone" id="outline" points="
      86.518,-41.204
      92.564,-25.365
      92.564,-10.365
      89.141,-2.022
      93.499,6.291
      95.179,21.197
      96.858,36.103
      98.538,51.008
      100.217,65.914
      101.897,80.820
      103.576,95.725
      105.256,110.631
      98.205,125.437
      107.725,138.791
      124.021,136.955
      130.330,121.818
      120.161,108.952
      118.482,94.046
      116.802,79.140
      115.123,64.235
      113.443,49.329
      111.764,34.423
      110.085,19.517
      108.405,4.612
      107.564,-10.365
      107.564,-25.365
      113.610,-41.204
    " />
    <g id="pairs">
      <line class="basepairs" id="2,26" x1="92.56404" y1="-25.36462" x2="107.56404" y2="-25.36462" />
      <line class="basepairs" id="3,25" x1="92.56404" y1="-10.36462" x2="107.56404" y2="-10.36462" />
      <line class="basepairs" id="5,24" x1="93.49941" y1="6.29125" x2="108.40510" y2="4.61179" />
      <line class="basepairs" id="6,23" x1="95.17889" y1="21.19694" x2="110.08456" y2="19.51746" />
      <line class="basepairs" id="7,22" x1="96.85835" y1="36.10262" x2="111.76403" y2="34.42315" />
      <line class="basepairs" id="8,21" x1="98.53782" y1="51.00830" x2="113.44350" y2="49.32883" />
      <line class="basepairs" id="9,20" x1="100.21729" y1="65.91399" x2="115.12297" y2="64.23451" />
      <line class="basepairs" id="10,19" x1="101.89675" y1="80.81966" x2="116.80244" y2="79.14020" />
      <line class="basepairs" id="11,18" x1="103.57622" y1="95.72535" x2="118.48190" y2="94.04588" />
      <line class="basepairs" id="12,17" x1="105.25568" y1="110.63103" x2="120.16137" y2="108.95157" />
    </g>
    <g transform="translate(-4.6, 4)" id="seq">
      <text class="nucleotide" x="86.518" y="-41.204">C</text>
      <text class="nucleotide" x="92.564" y="-25.365">G</text>
      <text class="nucleotide" x="92.564" y="-10.365">A</text>
      <text class="nucleotide" x="89.141" y="-2.022">U</text>
      <text class="nucleotide" x="93.499" y="6.291">A</text>
      <text class="nucleotide" x="95.179" y="21.197">G</text>
      <text class="nucleotide" x="96.858" y="36.103">A</text>
      <text class="nucleotide" x="98.538" y="51.008">U</text>
      <text class="nucleotide" x="100.217" y="65.914">U</text>
      <text class="nucleotide" x="101.897" y="80.820">G</text>
      <text class="nucleotide" x="103.576" y="95.725">U</text>
      <text class="nucleotide" x="105.256" y="110.631">U</text>
      <text class="nucleotide" x="98.205" y="125.437">G</text>
      <text class="nucleotide" x="107.725" y="138.791">U</text>
      <text class="nucleotide" x="124.021" y="136.955">A</text>
      <text class="nucleotide" x="130.330" y="121.818">A</text>
      <text class="nucleotide" x="120.161" y="108.952">G</text>
      <text class="nucleotide" x="118.482" y="94.046">A</text>
      <text class="nucleotide" x="116.802" y="79.140">C</text>
      <text class="nucleotide" x="115.123" y="64.235">A</text>
      <text class="nucleotide" x="113.443" y="49.329">A</text>
      <text class="nucleotide" x="111.764" y="34.423">U</text>
      <text class="nucleotide" x="110.085" y="19.517">C</text>
      <text class="nucleotide" x="108.405" y="4.612">U</text>
      <text class="nucleotide" x="107.564" y="-10.365">U</text>
      <text class="nucleotide" x="107.564" y="-25.365">C</text>
      <text class="nucleotide" x="113.610" y="-41.204">C</text>
    </g>
  </g>
<script type="text/ecmascript">
<![CDATA[
  let sequence = "CGAUAGAUUGUUGUAAGACAAUCUUCC";
  let structure = ".((.((((((((....)))))))))).";
  const basepairs = [
    { i: 2, j: 26, type: "cWW" },
    { i: 3, j: 25, type: "cWW" },
    { i: 5, j: 24, type: "cWW" },
    { i: 6, j: 23, type: "cWW" },
    { i: 7, j: 22, type: "cWW" },
    { i: 8, j: 21, type: "cWW" },
    { i: 9, j: 20, type: "cWW" },
    { i: 10, j: 19, type: "cWW" },
    { i: 11, j: 18, type: "cWW" },
    { i: 12, j: 17, type: "cWW" }];
  const coords = [
    { x: 86.518, y: -41.204 },
    { x: 92.564, y: -25.365 },
    { x: 92.564, y: -10.365 },
    { x: 89.141, y: -2.022 },
    { x: 93.499, y:  6.291 },
    { x: 95.179, y: 21.197 },
    { x: 96.858, y: 36.103 },
    { x: 98.538, y: 51.008 },
    { x: 100.217, y: 65.914 },
    { x: 101.897, y: 80.820 },
    { x: 103.576, y: 95.725 },
    { x: 105.256, y: 110.631 },
    { x: 98.205, y: 125.437 },
    { x: 107.725, y: 138.791 },
    { x: 124.021, y: 136.955 },
    { x: 130.330, y: 121.818 },
    { x: 120.161, y: 108.952 },
    { x: 118.482, y: 94.046 },
    { x: 116.802, y: 79.140 },
    { x: 115.123, y: 64.235 },
    { x: 113.443, y: 49.329 },
    { x: 111.764, y: 34.423 },
    { x: 110.085, y: 19.517 },
    { x: 108.405, y:  4.612 },
    { x: 107.564, y: -10.365 },
    { x: 107.564, y: -25.365 },
    { x: 113.610, y: -41.204 }];
]]>
</script>
</svg>
