<?xml version="1.0" encoding="UTF-8" standalone="yes" ?>
<svg xmlns="http://www.w3.org/2000/svg" height="452" width="452">
  <script type="text/ecmascript">
    <![CDATA[
      var shown = 1;
      function click() {
        var seq = document.getElementById("seq");
        if (shown==1) {
          seq.setAttribute("style", "visibility: hidden");
          shown = 0;
        } else {
          seq.setAttribute("style", "visibility: visible");
          shown = 1;
        }
      }
    ]]>
  </script>
  <style type="text/css">
    <![CDATA[
      .nucleotide {
        font-family: SansSerif;
      }
      .backbone {
        stroke: grey;
        fill:   none;
        stroke-width: 1.5;
      }
      .basepairs {
        stroke: red;
        fill:   none;
        stroke-width: 2.5;
      }
    ]]>
  </style>

  <rect style="stroke: white; fill: white" height="452" x="0" y="0" width="452" onclick="click(evt)" />
  <g transform="scale(2.306123,2.306123) translate(16.500000,24.500000)">
    <polyline class="backbone" id="outline" points="
      97.402,-0.031
      95.834,14.887
      94.266,29.805
      82.270,43.231
      87.768,60.376
      83.133,74.642
      71.509,85.376
      74.935,99.871
      70.300,114.137
      55.501,118.804
      46.299,131.298
      46.232,146.815
      55.325,159.388
      70.083,164.183
      84.830,159.356
      93.896,146.763
      93.795,131.246
      84.566,118.772
      89.201,104.506
      100.493,94.793
      97.398,79.277
      102.034,65.012
      112.181,60.423
      117.730,50.769
      116.587,39.691
      109.184,31.373
      110.752,16.455
      112.320,1.537
      116.511,-17.386
    " />
    <g id="pairs">
      <line class="basepairs" id="1,28" x1="97.40182" y1="-0.03078" x2="112.31965" y2="1.53716" />
      <line class="basepairs" id="2,27" x1="95.83389" y1="14.88705" x2="110.75172" y2="16.45499" />
      <line class="basepairs" id="3,26" x1="94.26597" y1="29.80489" x2="109.18379" y2="31.37281" />
      <line class="basepairs" id="5,22" x1="87.76781" y1="60.37628" x2="102.03366" y2="65.01154" />
      <line class="basepairs" id="6,21" x1="83.13256" y1="74.64213" x2="97.39841" y2="79.27738" />
      <line class="basepairs" id="8,19" x1="74.93513" y1="99.87122" x2="89.20098" y2="104.50648" />
      <line class="basepairs" id="9,18" x1="70.29987" y1="114.13707" x2="84.56573" y2="118.77232" />
    </g>
    <g transform="translate(-4.6, 4)" id="seq">
      <text class="nucleotide" x="97.402" y="-0.031">G</text>
      <text class="nucleotide" x="95.834" y="14.887">G</text>
      <text class="nucleotide" x="94.266" y="29.805">G</text>
      <text class="nucleotide" x="82.270" y="43.231">A</text>
      <text class="nucleotide" x="87.768" y="60.376">G</text>
      <text class="nucleotide" x="83.133" y="74.642">G</text>
      <text class="nucleotide" x="71.509" y="85.376">A</text>
      <text class="nucleotide" x="74.935" y="99.871">C</text>
      <text class="nucleotide" x="70.300" y="114.137">G</text>
      <text class="nucleotide" x="55.501" y="118.804">A</text>
      <text class="nucleotide" x="46.299" y="131.298">U</text>
      <text class="nucleotide" x="46.232" y="146.815">G</text>
      <text class="nucleotide" x="55.325" y="159.388">C</text>
      <text class="nucleotide" x="70.083" y="164.183">G</text>
      <text class="nucleotide" x="84.830" y="159.356">G</text>
      <text class="nucleotide" x="93.896" y="146.763">A</text>
      <text class="nucleotide" x="93.795" y="131.246">C</text>
      <text class="nucleotide" x="84.566" y="118.772">C</text>
      <text class="nucleotide" x="89.201" y="104.506">G</text>
      <text class="nucleotide" x="100.493" y="94.793">A</text>
      <text class="nucleotide" x="97.398" y="79.277">C</text>
      <text class="nucleotide" x="102.034" y="65.012">C</text>
      <text class="nucleotide" x="112.181" y="60.423">C</text>
      <text class="nucleotide" x="117.730" y="50.769">G</text>
      <text class="nucleotide" x="116.587" y="39.691">A</text>
      <text class="nucleotide" x="109.184" y="31.373">C</text>
      <text class="nucleotide" x="110.752" y="16.455">C</text>
      <text class="nucleotide" x="112.320" y="1.537">C</text>
      <text class="nucleotide" x="116.511" y="-17.386">G</text>
    </g>
  </g>
<script type="text/ecmascript">
<![CDATA[
  let sequence = "GGGAGGACGAUGCGGACCGACCCGACCCG";
  let structure = "(((.((.((........)).))...))).";
  const basepairs = [
    { i: 1, j: 28, type: "cWW" },
    { i: 2, j: 27, type: "cWW" },
    { i: 3, j: 26, type: "cWW" },
    { i: 5, j: 22, type: "cWW" },
    { i: 6, j: 21, type: "cWW" },
    { i: 8, j: 19, type: "cWW" },
    { i: 9, j: 18, type: "cWW" }];
  const coords = [
    { x: 97.402, y: -0.031 },
    { x: 95.834, y: 14.887 },
    { x: 94.266, y: 29.805 },
    { x: 82.270, y: 43.231 },
    { x: 87.768, y: 60.376 },
    { x: 83.133, y: 74.642 },
    { x: 71.509, y: 85.376 },
    { x: 74.935, y: 99.871 },
    { x: 70.300, y: 114.137 },
    { x: 55.501, y: 118.804 },
    { x: 46.299, y: 131.298 },
    { x: 46.232, y: 146.815 },
    { x: 55.325, y: 159.388 },
    { x: 70.083, y: 164.183 },
    { x: 84.830, y: 159.356 },
    { x: 93.896, y: 146.763 },
    { x: 93.795, y: 131.246 },
    { x: 84.566, y: 118.772 },
    { x: 89.201, y: 104.506 },
    { x: 100.493, y: 94.793 },
    { x: 97.398, y: 79.277 },
    { x: 102.034, y: 65.012 },
    { x: 112.181, y: 60.423 },
    { x: 117.730, y: 50.769 },
    { x: 116.587, y: 39.691 },
    { x: 109.184, y: 31.373 },
    { x: 110.752, y: 16.455 },
    { x: 112.320, y:  1.537 },
    { x: 116.511, y: -17.386 }];
]]>
</script>
</svg>
