<?xml version="1.0" encoding="UTF-8" standalone="yes" ?>
<svg xmlns="http://www.w3.org/2000/svg" height="452" width="452">
  <script type="text/ecmascript">
    <![CDATA[
      var shown = 1;
      function click() {
        var seq = document.getElementById("seq");
        if (shown==1) {
          seq.setAttribute("style", "visibility: hidden");
          shown = 0;
        } else {
          seq.setAttribute("style", "visibility: visible");
          shown = 1;
        }
      }
    ]]>
  </script>
  <style type="text/css">
    <![CDATA[
      .nucleotide {
        font-family: SansSerif;
      }
      .backbone {
        stroke: grey;
        fill:   none;
        stroke-width: 1.5;
      }
      .basepairs {
        stroke: red;
        fill:   none;
        stroke-width: 2.5;
      }
    ]]>
  </style>

  <rect style="stroke: white; fill: white" height="452" x="0" y="0" width="452" onclick="click(evt)" />
  <g transform="scale(3.138889,3.138889) translate(7.000000,-14.500000)">
    <polyline class="backbone" id="outline" points="
      100.026,48.649
      80.300,58.687
      76.849,80.550
      64.714,89.366
      52.579,98.183
      38.580,91.863
      23.299,93.404
      10.845,102.393
      4.569,116.411
      6.158,131.688
      15.186,144.113
      29.224,150.346
      44.495,148.708
      56.892,139.642
      63.081,125.585
      61.395,110.318
      73.531,101.502
      85.666,92.685
      94.296,96.673
      103.796,97.053
      112.718,93.766
      119.700,87.313
      123.679,78.678
      124.049,69.178
      120.752,60.260
      114.292,53.285
      126.834,42.719
      123.690,26.625
      108.093,21.557
    " />
    <g id="pairs">
      <line class="basepairs" id="1,26" x1="100.02605" y1="48.64931" x2="114.29190" y2="53.28456" />
    </g>
    <g transform="translate(-4.6, 4)" id="seq">
      <text class="nucleotide" x="100.026" y="48.649">G</text>
      <text class="nucleotide" x="80.300" y="58.687">U</text>
      <text class="nucleotide" x="76.849" y="80.550">G</text>
      <text class="nucleotide" x="64.714" y="89.366">G</text>
      <text class="nucleotide" x="52.579" y="98.183">G</text>
      <text class="nucleotide" x="38.580" y="91.863">C</text>
      <text class="nucleotide" x="23.299" y="93.404">G</text>
      <text class="nucleotide" x="10.845" y="102.393">G</text>
      <text class="nucleotide" x="4.569" y="116.411">G</text>
      <text class="nucleotide" x="6.158" y="131.688">U</text>
      <text class="nucleotide" x="15.186" y="144.113">G</text>
      <text class="nucleotide" x="29.224" y="150.346">G</text>
      <text class="nucleotide" x="44.495" y="148.708">G</text>
      <text class="nucleotide" x="56.892" y="139.642">U</text>
      <text class="nucleotide" x="63.081" y="125.585">U</text>
      <text class="nucleotide" x="61.395" y="110.318">G</text>
      <text class="nucleotide" x="73.531" y="101.502">G</text>
      <text class="nucleotide" x="85.666" y="92.685">G</text>
      <text class="nucleotide" x="94.296" y="96.673">A</text>
      <text class="nucleotide" x="103.796" y="97.053">A</text>
      <text class="nucleotide" x="112.718" y="93.766">A</text>
      <text class="nucleotide" x="119.700" y="87.313">G</text>
      <text class="nucleotide" x="123.679" y="78.678">A</text>
      <text class="nucleotide" x="124.049" y="69.178">A</text>
      <text class="nucleotide" x="120.752" y="60.260">U</text>
      <text class="nucleotide" x="114.292" y="53.285">C</text>
      <text class="nucleotide" x="126.834" y="42.719">G</text>
      <text class="nucleotide" x="123.690" y="26.625">G</text>
      <text class="nucleotide" x="108.093" y="21.557">A</text>
    </g>
  </g>
<script type="text/ecmascript">
<![CDATA[
  let sequence = "GUGGGCGGGUGGGUUGGGAAAGAAUCGGA";
  let structure = "(.+++.+++.+++..++~.......)...";
  const basepairs = [
    { i: 1, j: 26, type: "cWW" }];
  const coords = [
    { x: 100.026, y: 48.649 },
    { x: 80.300, y: 58.687 },
    { x: 76.849, y: 80.550 },
    { x: 64.714, y: 89.366 },
    { x: 52.579, y: 98.183 },
    { x: 38.580, y: 91.863 },
    { x: 23.299, y: 93.404 },
    { x: 10.845, y: 102.393 },
    { x:  4.569, y: 116.411 },
    { x:  6.158, y: 131.688 },
    { x: 15.186, y: 144.113 },
    { x: 29.224, y: 150.346 },
    { x: 44.495, y: 148.708 },
    { x: 56.892, y: 139.642 },
    { x: 63.081, y: 125.585 },
    { x: 61.395, y: 110.318 },
    { x: 73.531, y: 101.502 },
    { x: 85.666, y: 92.685 },
    { x: 94.296, y: 96.673 },
    { x: 103.796, y: 97.053 },
    { x: 112.718, y: 93.766 },
    { x: 119.700, y: 87.313 },
    { x: 123.679, y: 78.678 },
    { x: 124.049, y: 69.178 },
    { x: 120.752, y: 60.260 },
    { x: 114.292, y: 53.285 },
    { x: 126.834, y: 42.719 },
    { x: 123.690, y: 26.625 },
    { x: 108.093, y: 21.557 }];
]]>
</script>
</svg>
