<?xml version="1.0" encoding="UTF-8" standalone="yes" ?>
<svg xmlns="http://www.w3.org/2000/svg" height="452" width="452">
  <script type="text/ecmascript">
    <![CDATA[
      var shown = 1;
      function click() {
        var seq = document.getElementById("seq");
        if (shown==1) {
          seq.setAttribute("style", "visibility: hidden");
          shown = 0;
        } else {
          seq.setAttribute("style", "visibility: visible");
          shown = 1;
        }
      }
    ]]>
  </script>
  <style type="text/css">
    <![CDATA[
      .nucleotide {
        font-family: SansSerif;
      }
      .backbone {
        stroke: grey;
        fill:   none;
        stroke-width: 1.5;
      }
      .basepairs {
        stroke: red;
        fill:   none;
        stroke-width: 2.5;
      }
    ]]>
  </style>

  <rect style="stroke: white; fill: white" height="452" x="0" y="0" width="452" onclick="click(evt)" />
  <g transform="scale(3.559055,3.559055) translate(-44.000000,-5.500000)">
    <polyline class="backbone" id="outline" points="
      92.260,12.906
      79.935,21.058
      73.964,34.575
      76.236,49.175
      86.032,60.238
      100.251,64.259
      104.673,78.593
      95.258,90.927
      94.925,106.441
      103.801,119.168
      118.475,124.215
      133.302,119.642
      142.583,107.206
      142.748,91.689
      133.733,79.059
      119.006,74.172
      114.585,59.838
      124.068,48.506
      125.930,33.847
      119.583,20.503
    " />
    <g id="pairs">
      <line class="basepairs" id="6,17" x1="100.25124" y1="64.25936" x2="114.58484" y2="59.83804" />
      <line class="basepairs" id="7,16" x1="104.67257" y1="78.59296" x2="119.00616" y2="74.17163" />
    </g>
    <g transform="translate(-4.6, 4)" id="seq">
      <text class="nucleotide" x="92.260" y="12.906">U</text>
      <text class="nucleotide" x="79.935" y="21.058">A</text>
      <text class="nucleotide" x="73.964" y="34.575">A</text>
      <text class="nucleotide" x="76.236" y="49.175">A</text>
      <text class="nucleotide" x="86.032" y="60.238">U</text>
      <text class="nucleotide" x="100.251" y="64.259">C</text>
      <text class="nucleotide" x="104.673" y="78.593">G</text>
      <text class="nucleotide" x="95.258" y="90.927">G</text>
      <text class="nucleotide" x="94.925" y="106.441">G</text>
      <text class="nucleotide" x="103.801" y="119.168">C</text>
      <text class="nucleotide" x="118.475" y="124.215">U</text>
      <text class="nucleotide" x="133.302" y="119.642">C</text>
      <text class="nucleotide" x="142.583" y="107.206">U</text>
      <text class="nucleotide" x="142.748" y="91.689">A</text>
      <text class="nucleotide" x="133.733" y="79.059">A</text>
      <text class="nucleotide" x="119.006" y="74.172">C</text>
      <text class="nucleotide" x="114.585" y="59.838">G</text>
      <text class="nucleotide" x="124.068" y="48.506">U</text>
      <text class="nucleotide" x="125.930" y="33.847">G</text>
      <text class="nucleotide" x="119.583" y="20.503">U</text>
    </g>
  </g>
<script type="text/ecmascript">
<![CDATA[
  let sequence = "UAAAUCGGGCUCUAACGUGU";
  let structure = ".....((........))...";
  const basepairs = [
    { i: 6, j: 17, type: "cWW" },
    { i: 7, j: 16, type: "cWW" }];
  const coords = [
    { x: 92.260, y: 12.906 },
    { x: 79.935, y: 21.058 },
    { x: 73.964, y: 34.575 },
    { x: 76.236, y: 49.175 },
    { x: 86.032, y: 60.238 },
    { x: 100.251, y: 64.259 },
    { x: 104.673, y: 78.593 },
    { x: 95.258, y: 90.927 },
    { x: 94.925, y: 106.441 },
    { x: 103.801, y: 119.168 },
    { x: 118.475, y: 124.215 },
    { x: 133.302, y: 119.642 },
    { x: 142.583, y: 107.206 },
    { x: 142.748, y: 91.689 },
    { x: 133.733, y: 79.059 },
    { x: 119.006, y: 74.172 },
    { x: 114.585, y: 59.838 },
    { x: 124.068, y: 48.506 },
    { x: 125.930, y: 33.847 },
    { x: 119.583, y: 20.503 }];
]]>
</script>
</svg>
