<?xml version="1.0" encoding="UTF-8" standalone="yes" ?>
<svg xmlns="http://www.w3.org/2000/svg" height="452" width="452">
  <script type="text/ecmascript">
    <![CDATA[
      var shown = 1;
      function click() {
        var seq = document.getElementById("seq");
        if (shown==1) {
          seq.setAttribute("style", "visibility: hidden");
          shown = 0;
        } else {
          seq.setAttribute("style", "visibility: visible");
          shown = 1;
        }
      }
    ]]>
  </script>
  <style type="text/css">
    <![CDATA[
      .nucleotide {
        font-family: SansSerif;
      }
      .backbone {
        stroke: grey;
        fill:   none;
        stroke-width: 1.5;
      }
      .basepairs {
        stroke: red;
        fill:   none;
        stroke-width: 2.5;
      }
    ]]>
  </style>

  <rect style="stroke: white; fill: white" height="452" x="0" y="0" width="452" onclick="click(evt)" />
  <g transform="scale(3.228571,3.228571) translate(-29.500000,10.500000)">
    <polyline class="backbone" id="outline" points="
      85.820,-3.103
      76.130,8.052
      73.998,22.674
      80.098,36.133
      92.500,44.167
      92.500,59.167
      78.918,66.223
      70.181,78.790
      68.296,93.979
      73.696,108.300
      85.141,118.462
      100.000,122.131
      114.859,118.462
      126.304,108.300
      131.704,93.979
      129.819,78.790
      121.082,66.223
      107.500,59.167
      107.500,44.167
      119.902,36.133
      126.002,22.674
      123.870,8.052
      114.180,-3.103
    " />
    <g id="pairs">
    </g>
    <g transform="translate(-4.6, 4)" id="seq">
      <text class="nucleotide" x="85.820" y="-3.103">U</text>
      <text class="nucleotide" x="76.130" y="8.052">U</text>
      <text class="nucleotide" x="73.998" y="22.674">U</text>
      <text class="nucleotide" x="80.098" y="36.133">U</text>
      <text class="nucleotide" x="92.500" y="44.167">G</text>
      <text class="nucleotide" x="92.500" y="59.167">G</text>
      <text class="nucleotide" x="78.918" y="66.223">U</text>
      <text class="nucleotide" x="70.181" y="78.790">U</text>
      <text class="nucleotide" x="68.296" y="93.979">G</text>
      <text class="nucleotide" x="73.696" y="108.300">G</text>
      <text class="nucleotide" x="85.141" y="118.462">U</text>
      <text class="nucleotide" x="100.000" y="122.131">G</text>
      <text class="nucleotide" x="114.859" y="118.462">U</text>
      <text class="nucleotide" x="126.304" y="108.300">G</text>
      <text class="nucleotide" x="131.704" y="93.979">G</text>
      <text class="nucleotide" x="129.819" y="78.790">U</text>
      <text class="nucleotide" x="121.082" y="66.223">U</text>
      <text class="nucleotide" x="107.500" y="59.167">G</text>
      <text class="nucleotide" x="107.500" y="44.167">G</text>
      <text class="nucleotide" x="119.902" y="36.133">U</text>
      <text class="nucleotide" x="126.002" y="22.674">U</text>
      <text class="nucleotide" x="123.870" y="8.052">U</text>
      <text class="nucleotide" x="114.180" y="-3.103">U</text>
    </g>
  </g>
<script type="text/ecmascript">
<![CDATA[
  let sequence = "UUUUGGUUGGUGUGGUUGGUUUU";
  let structure = "....++..++...++..+~....";
  const basepairs = [
];
  const coords = [
    { x: 85.820, y: -3.103 },
    { x: 76.130, y:  8.052 },
    { x: 73.998, y: 22.674 },
    { x: 80.098, y: 36.133 },
    { x: 92.500, y: 44.167 },
    { x: 92.500, y: 59.167 },
    { x: 78.918, y: 66.223 },
    { x: 70.181, y: 78.790 },
    { x: 68.296, y: 93.979 },
    { x: 73.696, y: 108.300 },
    { x: 85.141, y: 118.462 },
    { x: 100.000, y: 122.131 },
    { x: 114.859, y: 118.462 },
    { x: 126.304, y: 108.300 },
    { x: 131.704, y: 93.979 },
    { x: 129.819, y: 78.790 },
    { x: 121.082, y: 66.223 },
    { x: 107.500, y: 59.167 },
    { x: 107.500, y: 44.167 },
    { x: 119.902, y: 36.133 },
    { x: 126.002, y: 22.674 },
    { x: 123.870, y:  8.052 },
    { x: 114.180, y: -3.103 }];
]]>
</script>
</svg>
