<?xml version="1.0" encoding="UTF-8" standalone="yes" ?>
<svg xmlns="http://www.w3.org/2000/svg" height="452" width="452">
  <script type="text/ecmascript">
    <![CDATA[
      var shown = 1;
      function click() {
        var seq = document.getElementById("seq");
        if (shown==1) {
          seq.setAttribute("style", "visibility: hidden");
          shown = 0;
        } else {
          seq.setAttribute("style", "visibility: visible");
          shown = 1;
        }
      }
    ]]>
  </script>
  <style type="text/css">
    <![CDATA[
      .nucleotide {
        font-family: SansSerif;
      }
      .backbone {
        stroke: grey;
        fill:   none;
        stroke-width: 1.5;
      }
      .basepairs {
        stroke: red;
        fill:   none;
        stroke-width: 2.5;
      }
    ]]>
  </style>

  <rect style="stroke: white; fill: white" height="452" x="0" y="0" width="452" onclick="click(evt)" />
  <g transform="scale(3.117241,3.117241) translate(-24.500000,-30.500000)">
    <polyline class="backbone" id="outline" points="
      82.131,37.245
      72.727,49.946
      75.141,65.565
      87.942,74.834
      90.077,89.682
      81.478,101.344
      83.540,115.686
      95.076,124.453
      97.211,139.300
      90.617,154.315
      100.540,167.371
      116.772,165.038
      122.615,149.715
      112.058,137.166
      109.923,122.318
      118.522,110.656
      116.460,96.314
      104.924,87.547
      102.789,72.700
      112.460,60.200
      110.376,44.533
    " />
    <g id="pairs">
      <line class="basepairs" id="4,19" x1="87.94195" y1="74.83447" x2="102.78927" y2="72.69975" />
      <line class="basepairs" id="5,18" x1="90.07668" y1="89.68179" x2="104.92400" y2="87.54707" />
      <line class="basepairs" id="8,15" x1="95.07600" y1="124.45293" x2="109.92332" y2="122.31821" />
      <line class="basepairs" id="9,14" x1="97.21073" y1="139.30025" x2="112.05805" y2="137.16553" />
    </g>
    <g transform="translate(-4.6, 4)" id="seq">
      <text class="nucleotide" x="82.131" y="37.245">G</text>
      <text class="nucleotide" x="72.727" y="49.946">A</text>
      <text class="nucleotide" x="75.141" y="65.565">C</text>
      <text class="nucleotide" x="87.942" y="74.834">C</text>
      <text class="nucleotide" x="90.077" y="89.682">C</text>
      <text class="nucleotide" x="81.478" y="101.344">A</text>
      <text class="nucleotide" x="83.540" y="115.686">C</text>
      <text class="nucleotide" x="95.076" y="124.453">G</text>
      <text class="nucleotide" x="97.211" y="139.300">G</text>
      <text class="nucleotide" x="90.617" y="154.315">G</text>
      <text class="nucleotide" x="100.540" y="167.371">C</text>
      <text class="nucleotide" x="116.772" y="165.038">A</text>
      <text class="nucleotide" x="122.615" y="149.715">A</text>
      <text class="nucleotide" x="112.058" y="137.166">C</text>
      <text class="nucleotide" x="109.923" y="122.318">C</text>
      <text class="nucleotide" x="118.522" y="110.656">A</text>
      <text class="nucleotide" x="116.460" y="96.314">C</text>
      <text class="nucleotide" x="104.924" y="87.547">G</text>
      <text class="nucleotide" x="102.789" y="72.700">G</text>
      <text class="nucleotide" x="112.460" y="60.200">A</text>
      <text class="nucleotide" x="110.376" y="44.533">A</text>
    </g>
  </g>
<script type="text/ecmascript">
<![CDATA[
  let sequence = "GACCCACGGGCAACCACGGAA";
  let structure = "...((..((....))..))..";
  const basepairs = [
    { i: 4, j: 19, type: "cWW" },
    { i: 5, j: 18, type: "cWW" },
    { i: 8, j: 15, type: "cWW" },
    { i: 9, j: 14, type: "cWW" }];
  const coords = [
    { x: 82.131, y: 37.245 },
    { x: 72.727, y: 49.946 },
    { x: 75.141, y: 65.565 },
    { x: 87.942, y: 74.834 },
    { x: 90.077, y: 89.682 },
    { x: 81.478, y: 101.344 },
    { x: 83.540, y: 115.686 },
    { x: 95.076, y: 124.453 },
    { x: 97.211, y: 139.300 },
    { x: 90.617, y: 154.315 },
    { x: 100.540, y: 167.371 },
    { x: 116.772, y: 165.038 },
    { x: 122.615, y: 149.715 },
    { x: 112.058, y: 137.166 },
    { x: 109.923, y: 122.318 },
    { x: 118.522, y: 110.656 },
    { x: 116.460, y: 96.314 },
    { x: 104.924, y: 87.547 },
    { x: 102.789, y: 72.700 },
    { x: 112.460, y: 60.200 },
    { x: 110.376, y: 44.533 }];
]]>
</script>
</svg>
