<?xml version="1.0" encoding="UTF-8" standalone="yes" ?>
<svg xmlns="http://www.w3.org/2000/svg" height="452" width="452">
  <script type="text/ecmascript">
    <![CDATA[
      var shown = 1;
      function click() {
        var seq = document.getElementById("seq");
        if (shown==1) {
          seq.setAttribute("style", "visibility: hidden");
          shown = 0;
        } else {
          seq.setAttribute("style", "visibility: visible");
          shown = 1;
        }
      }
    ]]>
  </script>
  <style type="text/css">
    <![CDATA[
      .nucleotide {
        font-family: SansSerif;
      }
      .backbone {
        stroke: grey;
        fill:   none;
        stroke-width: 1.5;
      }
      .basepairs {
        stroke: red;
        fill:   none;
        stroke-width: 2.5;
      }
    ]]>
  </style>

  <rect style="stroke: white; fill: white" height="452" x="0" y="0" width="452" onclick="click(evt)" />
  <g transform="scale(2.674556,2.674556) translate(-15.000000,24.500000)">
    <polyline class="backbone" id="outline" points="
      85.344,-17.846
      72.666,-10.000
      63.677,1.895
      59.591,16.234
      60.957,31.080
      67.593,44.432
      78.603,54.486
      92.500,59.885
      92.500,74.885
      78.918,81.942
      70.181,94.508
      68.296,109.697
      73.696,124.018
      85.141,134.181
      100.000,137.849
      114.859,134.181
      126.304,124.018
      131.704,109.697
      129.819,94.508
      121.082,81.942
      107.500,74.885
      107.500,59.885
      121.397,54.486
      132.407,44.432
      139.043,31.080
      140.409,16.234
      136.323,1.895
      127.334,-10.000
      114.656,-17.846
    " />
    <g id="pairs">
    </g>
    <g transform="translate(-4.6, 4)" id="seq">
      <text class="nucleotide" x="85.344" y="-17.846">U</text>
      <text class="nucleotide" x="72.666" y="-10.000">U</text>
      <text class="nucleotide" x="63.677" y="1.895">U</text>
      <text class="nucleotide" x="59.591" y="16.234">U</text>
      <text class="nucleotide" x="60.957" y="31.080">U</text>
      <text class="nucleotide" x="67.593" y="44.432">U</text>
      <text class="nucleotide" x="78.603" y="54.486">U</text>
      <text class="nucleotide" x="92.500" y="59.885">G</text>
      <text class="nucleotide" x="92.500" y="74.885">G</text>
      <text class="nucleotide" x="78.918" y="81.942">U</text>
      <text class="nucleotide" x="70.181" y="94.508">U</text>
      <text class="nucleotide" x="68.296" y="109.697">G</text>
      <text class="nucleotide" x="73.696" y="124.018">G</text>
      <text class="nucleotide" x="85.141" y="134.181">U</text>
      <text class="nucleotide" x="100.000" y="137.849">G</text>
      <text class="nucleotide" x="114.859" y="134.181">U</text>
      <text class="nucleotide" x="126.304" y="124.018">G</text>
      <text class="nucleotide" x="131.704" y="109.697">G</text>
      <text class="nucleotide" x="129.819" y="94.508">U</text>
      <text class="nucleotide" x="121.082" y="81.942">U</text>
      <text class="nucleotide" x="107.500" y="74.885">G</text>
      <text class="nucleotide" x="107.500" y="59.885">G</text>
      <text class="nucleotide" x="121.397" y="54.486">U</text>
      <text class="nucleotide" x="132.407" y="44.432">U</text>
      <text class="nucleotide" x="139.043" y="31.080">U</text>
      <text class="nucleotide" x="140.409" y="16.234">U</text>
      <text class="nucleotide" x="136.323" y="1.895">U</text>
      <text class="nucleotide" x="127.334" y="-10.000">U</text>
      <text class="nucleotide" x="114.656" y="-17.846">U</text>
    </g>
  </g>
<script type="text/ecmascript">
<![CDATA[
  let sequence = "UUUUUUUGGUUGGUGUGGUUGGUUUUUUU";
  let structure = ".......++..++...++..+~.......";
  const basepairs = [
];
  const coords = [
    { x: 85.344, y: -17.846 },
    { x: 72.666, y: -10.000 },
    { x: 63.677, y:  1.895 },
    { x: 59.591, y: 16.234 },
    { x: 60.957, y: 31.080 },
    { x: 67.593, y: 44.432 },
    { x: 78.603, y: 54.486 },
    { x: 92.500, y: 59.885 },
    { x: 92.500, y: 74.885 },
    { x: 78.918, y: 81.942 },
    { x: 70.181, y: 94.508 },
    { x: 68.296, y: 109.697 },
    { x: 73.696, y: 124.018 },
    { x: 85.141, y: 134.181 },
    { x: 100.000, y: 137.849 },
    { x: 114.859, y: 134.181 },
    { x: 126.304, y: 124.018 },
    { x: 131.704, y: 109.697 },
    { x: 129.819, y: 94.508 },
    { x: 121.082, y: 81.942 },
    { x: 107.500, y: 74.885 },
    { x: 107.500, y: 59.885 },
    { x: 121.397, y: 54.486 },
    { x: 132.407, y: 44.432 },
    { x: 139.043, y: 31.080 },
    { x: 140.409, y: 16.234 },
    { x: 136.323, y:  1.895 },
    { x: 127.334, y: -10.000 },
    { x: 114.656, y: -17.846 }];
]]>
</script>
</svg>
