<?xml version="1.0" encoding="UTF-8" standalone="yes" ?>
<svg xmlns="http://www.w3.org/2000/svg" height="452" width="452">
  <script type="text/ecmascript">
    <![CDATA[
      var shown = 1;
      function click() {
        var seq = document.getElementById("seq");
        if (shown==1) {
          seq.setAttribute("style", "visibility: hidden");
          shown = 0;
        } else {
          seq.setAttribute("style", "visibility: visible");
          shown = 1;
        }
      }
    ]]>
  </script>
  <style type="text/css">
    <![CDATA[
      .nucleotide {
        font-family: SansSerif;
      }
      .backbone {
        stroke: grey;
        fill:   none;
        stroke-width: 1.5;
      }
      .basepairs {
        stroke: red;
        fill:   none;
        stroke-width: 2.5;
      }
    ]]>
  </style>

  <rect style="stroke: white; fill: white" height="452" x="0" y="0" width="452" onclick="click(evt)" />
  <g transform="scale(2.612717,2.612717) translate(-13.000000,-6.500000)">
    <polyline class="backbone" id="outline" points="
      92.500,13.796
      92.500,28.796
      92.500,43.796
      92.500,58.797
      92.500,73.797
      85.676,86.000
      92.500,98.203
      92.500,113.203
      92.500,128.203
      92.500,143.203
      83.836,157.127
      91.800,171.463
      108.200,171.463
      116.164,157.127
      107.500,143.203
      107.500,128.203
      107.500,113.203
      107.500,98.203
      114.324,86.000
      107.500,73.797
      107.500,58.797
      107.500,43.796
      107.500,28.796
      107.500,13.796
    " />
    <g id="pairs">
      <line class="basepairs" id="1,24" x1="92.50000" y1="13.79649" x2="107.50000" y2="13.79649" />
      <line class="basepairs" id="2,23" x1="92.50000" y1="28.79649" x2="107.50000" y2="28.79649" />
      <line class="basepairs" id="3,22" x1="92.50000" y1="43.79649" x2="107.50000" y2="43.79649" />
      <line class="basepairs" id="4,21" x1="92.50000" y1="58.79650" x2="107.50000" y2="58.79650" />
      <line class="basepairs" id="5,20" x1="92.50000" y1="73.79650" x2="107.50000" y2="73.79650" />
      <line class="basepairs" id="7,18" x1="92.50000" y1="98.20350" x2="107.50000" y2="98.20350" />
      <line class="basepairs" id="8,17" x1="92.50000" y1="113.20350" x2="107.50000" y2="113.20350" />
      <line class="basepairs" id="9,16" x1="92.50000" y1="128.20349" x2="107.50000" y2="128.20349" />
      <line class="basepairs" id="10,15" x1="92.50000" y1="143.20349" x2="107.50000" y2="143.20349" />
    </g>
    <g transform="translate(-4.6, 4)" id="seq">
      <text class="nucleotide" x="92.500" y="13.796">C</text>
      <text class="nucleotide" x="92.500" y="28.796">U</text>
      <text class="nucleotide" x="92.500" y="43.796">C</text>
      <text class="nucleotide" x="92.500" y="58.797">G</text>
      <text class="nucleotide" x="92.500" y="73.797">C</text>
      <text class="nucleotide" x="85.676" y="86.000">U</text>
      <text class="nucleotide" x="92.500" y="98.203">U</text>
      <text class="nucleotide" x="92.500" y="113.203">A</text>
      <text class="nucleotide" x="92.500" y="128.203">C</text>
      <text class="nucleotide" x="92.500" y="143.203">C</text>
      <text class="nucleotide" x="83.836" y="157.127">C</text>
      <text class="nucleotide" x="91.800" y="171.463">C</text>
      <text class="nucleotide" x="108.200" y="171.463">U</text>
      <text class="nucleotide" x="116.164" y="157.127">G</text>
      <text class="nucleotide" x="107.500" y="143.203">G</text>
      <text class="nucleotide" x="107.500" y="128.203">G</text>
      <text class="nucleotide" x="107.500" y="113.203">U</text>
      <text class="nucleotide" x="107.500" y="98.203">G</text>
      <text class="nucleotide" x="114.324" y="86.000">U</text>
      <text class="nucleotide" x="107.500" y="73.797">G</text>
      <text class="nucleotide" x="107.500" y="58.797">C</text>
      <text class="nucleotide" x="107.500" y="43.796">G</text>
      <text class="nucleotide" x="107.500" y="28.796">G</text>
      <text class="nucleotide" x="107.500" y="13.796">G</text>
    </g>
  </g>
<script type="text/ecmascript">
<![CDATA[
  let sequence = "CUCGCUUACCCCUGGGUGUGCGGG";
  let structure = "(((((.((((....)))).)))))";
  const basepairs = [
    { i: 1, j: 24, type: "cWW" },
    { i: 2, j: 23, type: "cWW" },
    { i: 3, j: 22, type: "cWW" },
    { i: 4, j: 21, type: "cWW" },
    { i: 5, j: 20, type: "cWW" },
    { i: 7, j: 18, type: "cWW" },
    { i: 8, j: 17, type: "cWW" },
    { i: 9, j: 16, type: "cWW" },
    { i: 10, j: 15, type: "cWW" }];
  const coords = [
    { x: 92.500, y: 13.796 },
    { x: 92.500, y: 28.796 },
    { x: 92.500, y: 43.796 },
    { x: 92.500, y: 58.797 },
    { x: 92.500, y: 73.797 },
    { x: 85.676, y: 86.000 },
    { x: 92.500, y: 98.203 },
    { x: 92.500, y: 113.203 },
    { x: 92.500, y: 128.203 },
    { x: 92.500, y: 143.203 },
    { x: 83.836, y: 157.127 },
    { x: 91.800, y: 171.463 },
    { x: 108.200, y: 171.463 },
    { x: 116.164, y: 157.127 },
    { x: 107.500, y: 143.203 },
    { x: 107.500, y: 128.203 },
    { x: 107.500, y: 113.203 },
    { x: 107.500, y: 98.203 },
    { x: 114.324, y: 86.000 },
    { x: 107.500, y: 73.797 },
    { x: 107.500, y: 58.797 },
    { x: 107.500, y: 43.796 },
    { x: 107.500, y: 28.796 },
    { x: 107.500, y: 13.796 }];
]]>
</script>
</svg>
