<?xml version="1.0" encoding="UTF-8" standalone="yes" ?>
<svg xmlns="http://www.w3.org/2000/svg" height="452" width="452">
  <script type="text/ecmascript">
    <![CDATA[
      var shown = 1;
      function click() {
        var seq = document.getElementById("seq");
        if (shown==1) {
          seq.setAttribute("style", "visibility: hidden");
          shown = 0;
        } else {
          seq.setAttribute("style", "visibility: visible");
          shown = 1;
        }
      }
    ]]>
  </script>
  <style type="text/css">
    <![CDATA[
      .nucleotide {
        font-family: SansSerif;
      }
      .backbone {
        stroke: grey;
        fill:   none;
        stroke-width: 1.5;
      }
      .basepairs {
        stroke: red;
        fill:   none;
        stroke-width: 2.5;
      }
    ]]>
  </style>

  <rect style="stroke: white; fill: white" height="452" x="0" y="0" width="452" onclick="click(evt)" />
  <g transform="scale(3.160839,3.160839) translate(-63.500000,-22.500000)">
    <polyline class="backbone" id="outline" points="
      114.862,63.509
      100.642,59.359
      86.249,62.868
      75.534,73.097
      71.360,87.310
      74.845,101.708
      85.055,112.441
      99.262,116.638
      113.666,113.178
      124.416,102.986
      138.808,107.212
      153.201,111.438
      167.593,115.664
      178.512,127.899
      194.510,124.296
      199.131,108.562
      187.620,96.881
      171.819,101.271
      157.427,97.045
      143.034,92.819
      128.642,88.593
    " />
    <g id="pairs">
      <line class="basepairs" id="10,21" x1="124.41576" y1="102.98574" x2="128.64174" y2="88.59335" />
      <line class="basepairs" id="11,20" x1="138.80815" y1="107.21173" x2="143.03413" y2="92.81934" />
      <line class="basepairs" id="12,19" x1="153.20055" y1="111.43772" x2="157.42653" y2="97.04533" />
      <line class="basepairs" id="13,18" x1="167.59294" y1="115.66370" x2="171.81892" y2="101.27131" />
    </g>
    <g transform="translate(-4.6, 4)" id="seq">
      <text class="nucleotide" x="114.862" y="63.509">G</text>
      <text class="nucleotide" x="100.642" y="59.359">G</text>
      <text class="nucleotide" x="86.249" y="62.868">U</text>
      <text class="nucleotide" x="75.534" y="73.097">U</text>
      <text class="nucleotide" x="71.360" y="87.310">G</text>
      <text class="nucleotide" x="74.845" y="101.708">G</text>
      <text class="nucleotide" x="85.055" y="112.441">U</text>
      <text class="nucleotide" x="99.262" y="116.638">G</text>
      <text class="nucleotide" x="113.666" y="113.178">U</text>
      <text class="nucleotide" x="124.416" y="102.986">G</text>
      <text class="nucleotide" x="138.808" y="107.212">G</text>
      <text class="nucleotide" x="153.201" y="111.438">U</text>
      <text class="nucleotide" x="167.593" y="115.664">U</text>
      <text class="nucleotide" x="178.512" y="127.899">G</text>
      <text class="nucleotide" x="194.510" y="124.296">G</text>
      <text class="nucleotide" x="199.131" y="108.562">A</text>
      <text class="nucleotide" x="187.620" y="96.881">A</text>
      <text class="nucleotide" x="171.819" y="101.271">A</text>
      <text class="nucleotide" x="157.427" y="97.045">A</text>
      <text class="nucleotide" x="143.034" y="92.819">C</text>
      <text class="nucleotide" x="128.642" y="88.593">C</text>
    </g>
  </g>
<script type="text/ecmascript">
<![CDATA[
  let sequence = "GGUUGGUGUGGUUGGAAAACC";
  let structure = ".........((((....))))";
  const basepairs = [
    { i: 10, j: 21, type: "cWW" },
    { i: 11, j: 20, type: "cWW" },
    { i: 12, j: 19, type: "cWW" },
    { i: 13, j: 18, type: "cWW" }];
  const coords = [
    { x: 114.862, y: 63.509 },
    { x: 100.642, y: 59.359 },
    { x: 86.249, y: 62.868 },
    { x: 75.534, y: 73.097 },
    { x: 71.360, y: 87.310 },
    { x: 74.845, y: 101.708 },
    { x: 85.055, y: 112.441 },
    { x: 99.262, y: 116.638 },
    { x: 113.666, y: 113.178 },
    { x: 124.416, y: 102.986 },
    { x: 138.808, y: 107.212 },
    { x: 153.201, y: 111.438 },
    { x: 167.593, y: 115.664 },
    { x: 178.512, y: 127.899 },
    { x: 194.510, y: 124.296 },
    { x: 199.131, y: 108.562 },
    { x: 187.620, y: 96.881 },
    { x: 171.819, y: 101.271 },
    { x: 157.427, y: 97.045 },
    { x: 143.034, y: 92.819 },
    { x: 128.642, y: 88.593 }];
]]>
</script>
</svg>
