<?xml version="1.0" encoding="UTF-8" standalone="yes" ?>
<svg xmlns="http://www.w3.org/2000/svg" height="452" width="452">
  <script type="text/ecmascript">
    <![CDATA[
      var shown = 1;
      function click() {
        var seq = document.getElementById("seq");
        if (shown==1) {
          seq.setAttribute("style", "visibility: hidden");
          shown = 0;
        } else {
          seq.setAttribute("style", "visibility: visible");
          shown = 1;
        }
      }
    ]]>
  </script>
  <style type="text/css">
    <![CDATA[
      .nucleotide {
        font-family: SansSerif;
      }
      .backbone {
        stroke: grey;
        fill:   none;
        stroke-width: 1.5;
      }
      .basepairs {
        stroke: red;
        fill:   none;
        stroke-width: 2.5;
      }
    ]]>
  </style>

  <rect style="stroke: white; fill: white" height="452" x="0" y="0" width="452" onclick="click(evt)" />
  <g transform="scale(3.559055,3.559055) translate(-62.500000,-3.500000)">
    <polyline class="backbone" id="outline" points="
      106.085,10.915
      91.380,11.737
      79.956,21.031
      76.160,35.261
      81.436,49.010
      93.777,57.048
      108.485,56.314
      117.952,67.950
      127.418,79.586
      122.517,94.214
      126.324,109.164
      137.625,119.666
      152.814,122.368
      167.044,116.408
      175.774,103.689
      176.219,88.268
      168.236,75.066
      154.373,68.297
      139.054,70.119
      129.587,58.484
      120.121,46.848
      123.832,32.596
    " />
    <g id="pairs">
    </g>
    <g transform="translate(-4.6, 4)" id="seq">
      <text class="nucleotide" x="106.085" y="10.915">A</text>
      <text class="nucleotide" x="91.380" y="11.737">A</text>
      <text class="nucleotide" x="79.956" y="21.031">A</text>
      <text class="nucleotide" x="76.160" y="35.261">A</text>
      <text class="nucleotide" x="81.436" y="49.010">A</text>
      <text class="nucleotide" x="93.777" y="57.048">A</text>
      <text class="nucleotide" x="108.485" y="56.314">G</text>
      <text class="nucleotide" x="117.952" y="67.950">G</text>
      <text class="nucleotide" x="127.418" y="79.586">G</text>
      <text class="nucleotide" x="122.517" y="94.214">U</text>
      <text class="nucleotide" x="126.324" y="109.164">G</text>
      <text class="nucleotide" x="137.625" y="119.666">G</text>
      <text class="nucleotide" x="152.814" y="122.368">G</text>
      <text class="nucleotide" x="167.044" y="116.408">U</text>
      <text class="nucleotide" x="175.774" y="103.689">G</text>
      <text class="nucleotide" x="176.219" y="88.268">G</text>
      <text class="nucleotide" x="168.236" y="75.066">G</text>
      <text class="nucleotide" x="154.373" y="68.297">U</text>
      <text class="nucleotide" x="139.054" y="70.119">G</text>
      <text class="nucleotide" x="129.587" y="58.484">G</text>
      <text class="nucleotide" x="120.121" y="46.848">G</text>
      <text class="nucleotide" x="123.832" y="32.596">U</text>
    </g>
  </g>
<script type="text/ecmascript">
<![CDATA[
  let sequence = "AAAAAAGGGUGGGUGGGUGGGU";
  let structure = "......+++.+++.+++.++~.";
  const basepairs = [
];
  const coords = [
    { x: 106.085, y: 10.915 },
    { x: 91.380, y: 11.737 },
    { x: 79.956, y: 21.031 },
    { x: 76.160, y: 35.261 },
    { x: 81.436, y: 49.010 },
    { x: 93.777, y: 57.048 },
    { x: 108.485, y: 56.314 },
    { x: 117.952, y: 67.950 },
    { x: 127.418, y: 79.586 },
    { x: 122.517, y: 94.214 },
    { x: 126.324, y: 109.164 },
    { x: 137.625, y: 119.666 },
    { x: 152.814, y: 122.368 },
    { x: 167.044, y: 116.408 },
    { x: 175.774, y: 103.689 },
    { x: 176.219, y: 88.268 },
    { x: 168.236, y: 75.066 },
    { x: 154.373, y: 68.297 },
    { x: 139.054, y: 70.119 },
    { x: 129.587, y: 58.484 },
    { x: 120.121, y: 46.848 },
    { x: 123.832, y: 32.596 }];
]]>
</script>
</svg>
