<?xml version="1.0" encoding="UTF-8" standalone="yes" ?>
<svg xmlns="http://www.w3.org/2000/svg" height="452" width="452">
  <script type="text/ecmascript">
    <![CDATA[
      var shown = 1;
      function click() {
        var seq = document.getElementById("seq");
        if (shown==1) {
          seq.setAttribute("style", "visibility: hidden");
          shown = 0;
        } else {
          seq.setAttribute("style", "visibility: visible");
          shown = 1;
        }
      }
    ]]>
  </script>
  <style type="text/css">
    <![CDATA[
      .nucleotide {
        font-family: SansSerif;
      }
      .backbone {
        stroke: grey;
        fill:   none;
        stroke-width: 1.5;
      }
      .basepairs {
        stroke: red;
        fill:   none;
        stroke-width: 2.5;
      }
    ]]>
  </style>

  <rect style="stroke: white; fill: white" height="452" x="0" y="0" width="452" onclick="click(evt)" />
  <g transform="scale(2.378947,2.378947) translate(-0.500000,14.500000)">
    <polyline class="backbone" id="outline" points="
      102.612,15.850
      99.275,30.474
      95.937,45.098
      86.028,52.387
      83.967,64.515
      90.913,74.668
      89.233,89.574
      87.554,104.479
      85.874,119.385
      72.312,126.925
      65.803,141.011
      68.850,156.226
      80.281,166.720
      95.700,168.457
      109.179,160.770
      115.535,146.615
      112.324,131.434
      100.780,121.064
      102.459,106.159
      104.139,91.253
      105.818,76.347
      116.181,63.749
      110.561,48.435
      113.898,33.812
      117.236,19.188
      126.656,5.091
      115.717,-7.862
    " />
    <g id="pairs">
      <line class="basepairs" id="1,25" x1="102.61236" y1="15.84982" x2="117.23627" y2="19.18764" />
      <line class="basepairs" id="2,24" x1="99.27454" y1="30.47374" x2="113.89846" y2="33.81156" />
      <line class="basepairs" id="3,23" x1="95.93673" y1="45.09766" x2="110.56065" y2="48.43548" />
      <line class="basepairs" id="6,21" x1="90.91254" y1="74.66794" x2="105.81822" y2="76.34740" />
      <line class="basepairs" id="7,20" x1="89.23307" y1="89.57362" x2="104.13876" y2="91.25308" />
      <line class="basepairs" id="8,19" x1="87.55360" y1="104.47930" x2="102.45928" y2="106.15877" />
      <line class="basepairs" id="9,18" x1="85.87414" y1="119.38498" x2="100.77982" y2="121.06445" />
    </g>
    <g transform="translate(-4.6, 4)" id="seq">
      <text class="nucleotide" x="102.612" y="15.850">G</text>
      <text class="nucleotide" x="99.275" y="30.474">U</text>
      <text class="nucleotide" x="95.937" y="45.098">C</text>
      <text class="nucleotide" x="86.028" y="52.387">C</text>
      <text class="nucleotide" x="83.967" y="64.515">C</text>
      <text class="nucleotide" x="90.913" y="74.668">G</text>
      <text class="nucleotide" x="89.233" y="89.574">C</text>
      <text class="nucleotide" x="87.554" y="104.479">A</text>
      <text class="nucleotide" x="85.874" y="119.385">U</text>
      <text class="nucleotide" x="72.312" y="126.925">C</text>
      <text class="nucleotide" x="65.803" y="141.011">C</text>
      <text class="nucleotide" x="68.850" y="156.226">U</text>
      <text class="nucleotide" x="80.281" y="166.720">C</text>
      <text class="nucleotide" x="95.700" y="168.457">C</text>
      <text class="nucleotide" x="109.179" y="160.770">G</text>
      <text class="nucleotide" x="115.535" y="146.615">C</text>
      <text class="nucleotide" x="112.324" y="131.434">C</text>
      <text class="nucleotide" x="100.780" y="121.064">G</text>
      <text class="nucleotide" x="102.459" y="106.159">U</text>
      <text class="nucleotide" x="104.139" y="91.253">G</text>
      <text class="nucleotide" x="105.818" y="76.347">C</text>
      <text class="nucleotide" x="116.181" y="63.749">C</text>
      <text class="nucleotide" x="110.561" y="48.435">G</text>
      <text class="nucleotide" x="113.898" y="33.812">A</text>
      <text class="nucleotide" x="117.236" y="19.188">C</text>
      <text class="nucleotide" x="126.656" y="5.091">C</text>
      <text class="nucleotide" x="115.717" y="-7.862">C</text>
    </g>
  </g>
<script type="text/ecmascript">
<![CDATA[
  let sequence = "GUCCCGCAUCCUCCGCCGUGCCGACCC";
  let structure = "(((..((((........)))).)))..";
  const basepairs = [
    { i: 1, j: 25, type: "cWW" },
    { i: 2, j: 24, type: "cWW" },
    { i: 3, j: 23, type: "cWW" },
    { i: 6, j: 21, type: "cWW" },
    { i: 7, j: 20, type: "cWW" },
    { i: 8, j: 19, type: "cWW" },
    { i: 9, j: 18, type: "cWW" }];
  const coords = [
    { x: 102.612, y: 15.850 },
    { x: 99.275, y: 30.474 },
    { x: 95.937, y: 45.098 },
    { x: 86.028, y: 52.387 },
    { x: 83.967, y: 64.515 },
    { x: 90.913, y: 74.668 },
    { x: 89.233, y: 89.574 },
    { x: 87.554, y: 104.479 },
    { x: 85.874, y: 119.385 },
    { x: 72.312, y: 126.925 },
    { x: 65.803, y: 141.011 },
    { x: 68.850, y: 156.226 },
    { x: 80.281, y: 166.720 },
    { x: 95.700, y: 168.457 },
    { x: 109.179, y: 160.770 },
    { x: 115.535, y: 146.615 },
    { x: 112.324, y: 131.434 },
    { x: 100.780, y: 121.064 },
    { x: 102.459, y: 106.159 },
    { x: 104.139, y: 91.253 },
    { x: 105.818, y: 76.347 },
    { x: 116.181, y: 63.749 },
    { x: 110.561, y: 48.435 },
    { x: 113.898, y: 33.812 },
    { x: 117.236, y: 19.188 },
    { x: 126.656, y:  5.091 },
    { x: 115.717, y: -7.862 }];
]]>
</script>
</svg>
