<?xml version="1.0" encoding="UTF-8" standalone="yes" ?>
<svg xmlns="http://www.w3.org/2000/svg" height="452" width="452">
  <script type="text/ecmascript">
    <![CDATA[
      var shown = 1;
      function click() {
        var seq = document.getElementById("seq");
        if (shown==1) {
          seq.setAttribute("style", "visibility: hidden");
          shown = 0;
        } else {
          seq.setAttribute("style", "visibility: visible");
          shown = 1;
        }
      }
    ]]>
  </script>
  <style type="text/css">
    <![CDATA[
      .nucleotide {
        font-family: SansSerif;
      }
      .backbone {
        stroke: grey;
        fill:   none;
        stroke-width: 1.5;
      }
      .basepairs {
        stroke: red;
        fill:   none;
        stroke-width: 2.5;
      }
    ]]>
  </style>

  <rect style="stroke: white; fill: white" height="452" x="0" y="0" width="452" onclick="click(evt)" />
  <g transform="scale(2.690476,2.690476) translate(-28.000000,1.500000)">
    <polyline class="backbone" id="outline" points="
      86.821,5.496
      71.970,10.901
      65.367,25.260
      70.929,40.053
      85.357,46.504
      90.487,60.600
      90.127,69.653
      97.119,75.975
      103.851,89.379
      110.583,102.784
      117.315,116.188
      110.071,129.910
      112.309,145.265
      123.169,156.348
      138.475,158.898
      152.342,151.934
      159.437,138.134
      157.032,122.804
      146.052,111.840
      130.719,109.456
      123.987,96.052
      117.255,82.647
      110.523,69.243
      104.582,55.469
      99.452,41.374
      106.357,27.158
    " />
    <g id="pairs">
      <line class="basepairs" id="5,25" x1="85.35656" y1="46.50432" x2="99.45195" y2="41.37402" />
      <line class="basepairs" id="6,24" x1="90.48686" y1="60.59971" x2="104.58225" y2="55.46941" />
      <line class="basepairs" id="8,23" x1="97.11896" y1="75.97463" x2="110.52345" y2="69.24265" />
      <line class="basepairs" id="9,22" x1="103.85094" y1="89.37912" x2="117.25543" y2="82.64713" />
      <line class="basepairs" id="10,21" x1="110.58293" y1="102.78362" x2="123.98742" y2="96.05162" />
      <line class="basepairs" id="11,20" x1="117.31492" y1="116.18810" x2="130.71941" y2="109.45612" />
    </g>
    <g transform="translate(-4.6, 4)" id="seq">
      <text class="nucleotide" x="86.821" y="5.496">C</text>
      <text class="nucleotide" x="71.970" y="10.901">U</text>
      <text class="nucleotide" x="65.367" y="25.260">U</text>
      <text class="nucleotide" x="70.929" y="40.053">U</text>
      <text class="nucleotide" x="85.357" y="46.504">G</text>
      <text class="nucleotide" x="90.487" y="60.600">C</text>
      <text class="nucleotide" x="90.127" y="69.653">C</text>
      <text class="nucleotide" x="97.119" y="75.975">A</text>
      <text class="nucleotide" x="103.851" y="89.379">C</text>
      <text class="nucleotide" x="110.583" y="102.784">U</text>
      <text class="nucleotide" x="117.315" y="116.188">A</text>
      <text class="nucleotide" x="110.071" y="129.910">G</text>
      <text class="nucleotide" x="112.309" y="145.265">U</text>
      <text class="nucleotide" x="123.169" y="156.348">C</text>
      <text class="nucleotide" x="138.475" y="158.898">C</text>
      <text class="nucleotide" x="152.342" y="151.934">C</text>
      <text class="nucleotide" x="159.437" y="138.134">A</text>
      <text class="nucleotide" x="157.032" y="122.804">G</text>
      <text class="nucleotide" x="146.052" y="111.840">A</text>
      <text class="nucleotide" x="130.719" y="109.456">U</text>
      <text class="nucleotide" x="123.987" y="96.052">A</text>
      <text class="nucleotide" x="117.255" y="82.647">G</text>
      <text class="nucleotide" x="110.523" y="69.243">U</text>
      <text class="nucleotide" x="104.582" y="55.469">G</text>
      <text class="nucleotide" x="99.452" y="41.374">C</text>
      <text class="nucleotide" x="106.357" y="27.158">G</text>
    </g>
  </g>
<script type="text/ecmascript">
<![CDATA[
  let sequence = "CUUUGCCACUAGUCCCAGAUAGUGCG";
  let structure = "....((.((((........)))))).";
  const basepairs = [
    { i: 5, j: 25, type: "cWW" },
    { i: 6, j: 24, type: "cWW" },
    { i: 8, j: 23, type: "cWW" },
    { i: 9, j: 22, type: "cWW" },
    { i: 10, j: 21, type: "cWW" },
    { i: 11, j: 20, type: "cWW" }];
  const coords = [
    { x: 86.821, y:  5.496 },
    { x: 71.970, y: 10.901 },
    { x: 65.367, y: 25.260 },
    { x: 70.929, y: 40.053 },
    { x: 85.357, y: 46.504 },
    { x: 90.487, y: 60.600 },
    { x: 90.127, y: 69.653 },
    { x: 97.119, y: 75.975 },
    { x: 103.851, y: 89.379 },
    { x: 110.583, y: 102.784 },
    { x: 117.315, y: 116.188 },
    { x: 110.071, y: 129.910 },
    { x: 112.309, y: 145.265 },
    { x: 123.169, y: 156.348 },
    { x: 138.475, y: 158.898 },
    { x: 152.342, y: 151.934 },
    { x: 159.437, y: 138.134 },
    { x: 157.032, y: 122.804 },
    { x: 146.052, y: 111.840 },
    { x: 130.719, y: 109.456 },
    { x: 123.987, y: 96.052 },
    { x: 117.255, y: 82.647 },
    { x: 110.523, y: 69.243 },
    { x: 104.582, y: 55.469 },
    { x: 99.452, y: 41.374 },
    { x: 106.357, y: 27.158 }];
]]>
</script>
</svg>
