<?xml version="1.0" encoding="UTF-8" standalone="yes" ?>
<svg xmlns="http://www.w3.org/2000/svg" height="452" width="452">
  <script type="text/ecmascript">
    <![CDATA[
      var shown = 1;
      function click() {
        var seq = document.getElementById("seq");
        if (shown==1) {
          seq.setAttribute("style", "visibility: hidden");
          shown = 0;
        } else {
          seq.setAttribute("style", "visibility: visible");
          shown = 1;
        }
      }
    ]]>
  </script>
  <style type="text/css">
    <![CDATA[
      .nucleotide {
        font-family: SansSerif;
      }
      .backbone {
        stroke: grey;
        fill:   none;
        stroke-width: 1.5;
      }
      .basepairs {
        stroke: red;
        fill:   none;
        stroke-width: 2.5;
      }
    ]]>
  </style>

  <rect style="stroke: white; fill: white" height="452" x="0" y="0" width="452" onclick="click(evt)" />
  <g transform="scale(2.756098,2.756098) translate(-18.000000,-16.500000)">
    <polyline class="backbone" id="outline" points="
      115.463,51.398
      108.492,64.680
      101.522,77.962
      87.720,82.373
      80.986,95.203
      85.197,109.067
      71.932,117.691
      72.869,132.556
      65.898,145.838
      53.183,157.053
      60.440,172.375
      77.173,169.643
      79.180,152.809
      86.150,139.527
      98.916,131.853
      98.478,116.038
      112.280,111.627
      119.014,98.797
      114.803,84.933
      121.774,71.651
      128.745,58.369
      143.572,52.243
      147.889,36.791
      138.383,23.868
      122.347,23.386
    " />
    <g id="pairs">
      <line class="basepairs" id="1,21" x1="115.46333" y1="51.39844" x2="128.74518" y2="58.36929" />
      <line class="basepairs" id="2,20" x1="108.49249" y1="64.68028" x2="121.77433" y2="71.65113" />
      <line class="basepairs" id="3,19" x1="101.52164" y1="77.96212" x2="114.80348" y2="84.93297" />
      <line class="basepairs" id="6,16" x1="85.19652" y1="109.06703" x2="98.47836" y2="116.03788" />
      <line class="basepairs" id="8,14" x1="72.86861" y1="132.55591" x2="86.15044" y2="139.52676" />
      <line class="basepairs" id="9,13" x1="65.89776" y1="145.83775" x2="79.17960" y2="152.80861" />
    </g>
    <g transform="translate(-4.6, 4)" id="seq">
      <text class="nucleotide" x="115.463" y="51.398">C</text>
      <text class="nucleotide" x="108.492" y="64.680">C</text>
      <text class="nucleotide" x="101.522" y="77.962">U</text>
      <text class="nucleotide" x="87.720" y="82.373">G</text>
      <text class="nucleotide" x="80.986" y="95.203">G</text>
      <text class="nucleotide" x="85.197" y="109.067">G</text>
      <text class="nucleotide" x="71.932" y="117.691">G</text>
      <text class="nucleotide" x="72.869" y="132.556">G</text>
      <text class="nucleotide" x="65.898" y="145.838">A</text>
      <text class="nucleotide" x="53.183" y="157.053">G</text>
      <text class="nucleotide" x="60.440" y="172.375">U</text>
      <text class="nucleotide" x="77.173" y="169.643">A</text>
      <text class="nucleotide" x="79.180" y="152.809">U</text>
      <text class="nucleotide" x="86.150" y="139.527">U</text>
      <text class="nucleotide" x="98.916" y="131.853">G</text>
      <text class="nucleotide" x="98.478" y="116.038">C</text>
      <text class="nucleotide" x="112.280" y="111.627">G</text>
      <text class="nucleotide" x="119.014" y="98.797">G</text>
      <text class="nucleotide" x="114.803" y="84.933">A</text>
      <text class="nucleotide" x="121.774" y="71.651">G</text>
      <text class="nucleotide" x="128.745" y="58.369">G</text>
      <text class="nucleotide" x="143.572" y="52.243">A</text>
      <text class="nucleotide" x="147.889" y="36.791">A</text>
      <text class="nucleotide" x="138.383" y="23.868">G</text>
      <text class="nucleotide" x="122.347" y="23.386">G</text>
    </g>
  </g>
<script type="text/ecmascript">
<![CDATA[
  let sequence = "CCUGGGGGAGUAUUGCGGAGGAAGG";
  let structure = "(((..(.((...)).)..)))....";
  const basepairs = [
    { i: 1, j: 21, type: "cWW" },
    { i: 2, j: 20, type: "cWW" },
    { i: 3, j: 19, type: "cWW" },
    { i: 6, j: 16, type: "cWW" },
    { i: 8, j: 14, type: "cWW" },
    { i: 9, j: 13, type: "cWW" }];
  const coords = [
    { x: 115.463, y: 51.398 },
    { x: 108.492, y: 64.680 },
    { x: 101.522, y: 77.962 },
    { x: 87.720, y: 82.373 },
    { x: 80.986, y: 95.203 },
    { x: 85.197, y: 109.067 },
    { x: 71.932, y: 117.691 },
    { x: 72.869, y: 132.556 },
    { x: 65.898, y: 145.838 },
    { x: 53.183, y: 157.053 },
    { x: 60.440, y: 172.375 },
    { x: 77.173, y: 169.643 },
    { x: 79.180, y: 152.809 },
    { x: 86.150, y: 139.527 },
    { x: 98.916, y: 131.853 },
    { x: 98.478, y: 116.038 },
    { x: 112.280, y: 111.627 },
    { x: 119.014, y: 98.797 },
    { x: 114.803, y: 84.933 },
    { x: 121.774, y: 71.651 },
    { x: 128.745, y: 58.369 },
    { x: 143.572, y: 52.243 },
    { x: 147.889, y: 36.791 },
    { x: 138.383, y: 23.868 },
    { x: 122.347, y: 23.386 }];
]]>
</script>
</svg>
