<?xml version="1.0" encoding="UTF-8" standalone="yes" ?>
<svg xmlns="http://www.w3.org/2000/svg" height="452" width="452">
  <script type="text/ecmascript">
    <![CDATA[
      var shown = 1;
      function click() {
        var seq = document.getElementById("seq");
        if (shown==1) {
          seq.setAttribute("style", "visibility: hidden");
          shown = 0;
        } else {
          seq.setAttribute("style", "visibility: visible");
          shown = 1;
        }
      }
    ]]>
  </script>
  <style type="text/css">
    <![CDATA[
      .nucleotide {
        font-family: SansSerif;
      }
      .backbone {
        stroke: grey;
        fill:   none;
        stroke-width: 1.5;
      }
      .basepairs {
        stroke: red;
        fill:   none;
        stroke-width: 2.5;
      }
    ]]>
  </style>

  <rect style="stroke: white; fill: white" height="452" x="0" y="0" width="452" onclick="click(evt)" />
  <g transform="scale(2.773006,2.773006) translate(-18.000000,-1.500000)">
    <polyline class="backbone" id="outline" points="
      92.500,8.796
      92.500,23.796
      92.500,38.797
      92.500,53.797
      85.676,66.000
      92.500,78.203
      92.500,93.203
      78.918,100.260
      70.181,112.826
      68.296,128.015
      73.696,142.336
      85.141,152.499
      100.000,156.167
      114.859,152.499
      126.304,142.336
      131.704,128.015
      129.819,112.826
      121.082,100.260
      107.500,93.203
      107.500,78.203
      114.324,66.000
      107.500,53.797
      107.500,38.797
      107.500,23.796
      107.500,8.796
    " />
    <g id="pairs">
      <line class="basepairs" id="1,25" x1="92.50000" y1="8.79649" x2="107.50000" y2="8.79649" />
      <line class="basepairs" id="2,24" x1="92.50000" y1="23.79649" x2="107.50000" y2="23.79649" />
      <line class="basepairs" id="3,23" x1="92.50000" y1="38.79650" x2="107.50000" y2="38.79650" />
      <line class="basepairs" id="4,22" x1="92.50000" y1="53.79650" x2="107.50000" y2="53.79650" />
    </g>
    <g transform="translate(-4.6, 4)" id="seq">
      <text class="nucleotide" x="92.500" y="8.796">A</text>
      <text class="nucleotide" x="92.500" y="23.796">C</text>
      <text class="nucleotide" x="92.500" y="38.797">G</text>
      <text class="nucleotide" x="92.500" y="53.797">U</text>
      <text class="nucleotide" x="85.676" y="66.000">A</text>
      <text class="nucleotide" x="92.500" y="78.203">G</text>
      <text class="nucleotide" x="92.500" y="93.203">G</text>
      <text class="nucleotide" x="78.918" y="100.260">U</text>
      <text class="nucleotide" x="70.181" y="112.826">U</text>
      <text class="nucleotide" x="68.296" y="128.015">G</text>
      <text class="nucleotide" x="73.696" y="142.336">G</text>
      <text class="nucleotide" x="85.141" y="152.499">U</text>
      <text class="nucleotide" x="100.000" y="156.167">G</text>
      <text class="nucleotide" x="114.859" y="152.499">U</text>
      <text class="nucleotide" x="126.304" y="142.336">G</text>
      <text class="nucleotide" x="131.704" y="128.015">G</text>
      <text class="nucleotide" x="129.819" y="112.826">U</text>
      <text class="nucleotide" x="121.082" y="100.260">U</text>
      <text class="nucleotide" x="107.500" y="93.203">G</text>
      <text class="nucleotide" x="107.500" y="78.203">G</text>
      <text class="nucleotide" x="114.324" y="66.000">G</text>
      <text class="nucleotide" x="107.500" y="53.797">G</text>
      <text class="nucleotide" x="107.500" y="38.797">C</text>
      <text class="nucleotide" x="107.500" y="23.796">G</text>
      <text class="nucleotide" x="107.500" y="8.796">U</text>
    </g>
  </g>
<script type="text/ecmascript">
<![CDATA[
  let sequence = "ACGUAGGUUGGUGUGGUUGGGGCGU";
  let structure = "((((.++..++...++..+~.))))";
  const basepairs = [
    { i: 1, j: 25, type: "cWW" },
    { i: 2, j: 24, type: "cWW" },
    { i: 3, j: 23, type: "cWW" },
    { i: 4, j: 22, type: "cWW" }];
  const coords = [
    { x: 92.500, y:  8.796 },
    { x: 92.500, y: 23.796 },
    { x: 92.500, y: 38.797 },
    { x: 92.500, y: 53.797 },
    { x: 85.676, y: 66.000 },
    { x: 92.500, y: 78.203 },
    { x: 92.500, y: 93.203 },
    { x: 78.918, y: 100.260 },
    { x: 70.181, y: 112.826 },
    { x: 68.296, y: 128.015 },
    { x: 73.696, y: 142.336 },
    { x: 85.141, y: 152.499 },
    { x: 100.000, y: 156.167 },
    { x: 114.859, y: 152.499 },
    { x: 126.304, y: 142.336 },
    { x: 131.704, y: 128.015 },
    { x: 129.819, y: 112.826 },
    { x: 121.082, y: 100.260 },
    { x: 107.500, y: 93.203 },
    { x: 107.500, y: 78.203 },
    { x: 114.324, y: 66.000 },
    { x: 107.500, y: 53.797 },
    { x: 107.500, y: 38.797 },
    { x: 107.500, y: 23.796 },
    { x: 107.500, y:  8.796 }];
]]>
</script>
</svg>
