<?xml version="1.0" encoding="UTF-8" standalone="yes" ?>
<svg xmlns="http://www.w3.org/2000/svg" height="452" width="452">
  <script type="text/ecmascript">
    <![CDATA[
      var shown = 1;
      function click() {
        var seq = document.getElementById("seq");
        if (shown==1) {
          seq.setAttribute("style", "visibility: hidden");
          shown = 0;
        } else {
          seq.setAttribute("style", "visibility: visible");
          shown = 1;
        }
      }
    ]]>
  </script>
  <style type="text/css">
    <![CDATA[
      .nucleotide {
        font-family: SansSerif;
      }
      .backbone {
        stroke: grey;
        fill:   none;
        stroke-width: 1.5;
      }
      .basepairs {
        stroke: red;
        fill:   none;
        stroke-width: 2.5;
      }
    ]]>
  </style>

  <rect style="stroke: white; fill: white" height="452" x="0" y="0" width="452" onclick="click(evt)" />
  <g transform="scale(3.251799,3.251799) translate(-34.500000,-36.500000)">
    <polyline class="backbone" id="outline" points="
      94.032,55.226
      92.216,70.757
      100.852,83.794
      96.430,98.128
      86.312,107.778
      89.236,121.451
      84.815,135.784
      72.432,146.536
      75.817,162.582
      91.487,167.416
      103.323,156.064
      99.148,140.206
      103.570,125.872
      113.688,116.222
      110.764,102.549
      115.185,88.216
      129.664,82.309
      136.913,68.453
      133.509,53.190
      121.059,43.727
    " />
    <g id="pairs">
      <line class="basepairs" id="3,16" x1="100.85158" y1="83.79442" x2="115.18517" y2="88.21574" />
      <line class="basepairs" id="4,15" x1="96.43025" y1="98.12801" x2="110.76384" y2="102.54933" />
      <line class="basepairs" id="6,13" x1="89.23616" y1="121.45067" x2="103.56975" y2="125.87199" />
      <line class="basepairs" id="7,12" x1="84.81483" y1="135.78427" x2="99.14842" y2="140.20560" />
    </g>
    <g transform="translate(-4.6, 4)" id="seq">
      <text class="nucleotide" x="94.032" y="55.226">U</text>
      <text class="nucleotide" x="92.216" y="70.757">A</text>
      <text class="nucleotide" x="100.852" y="83.794">C</text>
      <text class="nucleotide" x="96.430" y="98.128">A</text>
      <text class="nucleotide" x="86.312" y="107.778">G</text>
      <text class="nucleotide" x="89.236" y="121.451">U</text>
      <text class="nucleotide" x="84.815" y="135.784">U</text>
      <text class="nucleotide" x="72.432" y="146.536">U</text>
      <text class="nucleotide" x="75.817" y="162.582">A</text>
      <text class="nucleotide" x="91.487" y="167.416">G</text>
      <text class="nucleotide" x="103.323" y="156.064">U</text>
      <text class="nucleotide" x="99.148" y="140.206">G</text>
      <text class="nucleotide" x="103.570" y="125.872">A</text>
      <text class="nucleotide" x="113.688" y="116.222">G</text>
      <text class="nucleotide" x="110.764" y="102.549">U</text>
      <text class="nucleotide" x="115.185" y="88.216">G</text>
      <text class="nucleotide" x="129.664" y="82.309">C</text>
      <text class="nucleotide" x="136.913" y="68.453">A</text>
      <text class="nucleotide" x="133.509" y="53.190">A</text>
      <text class="nucleotide" x="121.059" y="43.727">G</text>
    </g>
  </g>
<script type="text/ecmascript">
<![CDATA[
  let sequence = "UACAGUUUAGUGAGUGCAAG";
  let structure = "..((.((....)).))....";
  const basepairs = [
    { i: 3, j: 16, type: "cWW" },
    { i: 4, j: 15, type: "cWW" },
    { i: 6, j: 13, type: "cWW" },
    { i: 7, j: 12, type: "cWW" }];
  const coords = [
    { x: 94.032, y: 55.226 },
    { x: 92.216, y: 70.757 },
    { x: 100.852, y: 83.794 },
    { x: 96.430, y: 98.128 },
    { x: 86.312, y: 107.778 },
    { x: 89.236, y: 121.451 },
    { x: 84.815, y: 135.784 },
    { x: 72.432, y: 146.536 },
    { x: 75.817, y: 162.582 },
    { x: 91.487, y: 167.416 },
    { x: 103.323, y: 156.064 },
    { x: 99.148, y: 140.206 },
    { x: 103.570, y: 125.872 },
    { x: 113.688, y: 116.222 },
    { x: 110.764, y: 102.549 },
    { x: 115.185, y: 88.216 },
    { x: 129.664, y: 82.309 },
    { x: 136.913, y: 68.453 },
    { x: 133.509, y: 53.190 },
    { x: 121.059, y: 43.727 }];
]]>
</script>
</svg>
