<?xml version="1.0" encoding="UTF-8" standalone="yes" ?>
<svg xmlns="http://www.w3.org/2000/svg" height="452" width="452">
  <script type="text/ecmascript">
    <![CDATA[
      var shown = 1;
      function click() {
        var seq = document.getElementById("seq");
        if (shown==1) {
          seq.setAttribute("style", "visibility: hidden");
          shown = 0;
        } else {
          seq.setAttribute("style", "visibility: visible");
          shown = 1;
        }
      }
    ]]>
  </script>
  <style type="text/css">
    <![CDATA[
      .nucleotide {
        font-family: SansSerif;
      }
      .backbone {
        stroke: grey;
        fill:   none;
        stroke-width: 1.5;
      }
      .basepairs {
        stroke: red;
        fill:   none;
        stroke-width: 2.5;
      }
    ]]>
  </style>

  <rect style="stroke: white; fill: white" height="452" x="0" y="0" width="452" onclick="click(evt)" />
  <g transform="scale(3.348148,3.348148) translate(1.500000,-11.500000)">
    <polyline class="backbone" id="outline" points="
      74.455,64.088
      61.465,71.588
      48.563,63.354
      33.311,62.071
      19.214,68.032
      9.512,79.870
      6.434,94.862
      10.686,109.565
      21.293,120.600
      35.816,125.430
      50.919,122.946
      63.130,113.719
      69.645,99.869
      68.965,84.579
      81.955,77.079
      95.113,83.802
      109.819,82.356
      121.416,73.198
      126.232,59.228
      122.742,44.870
      112.052,34.668
      97.546,31.854
      83.817,37.319
    " />
    <g id="pairs">
    </g>
    <g transform="translate(-4.6, 4)" id="seq">
      <text class="nucleotide" x="74.455" y="64.088">G</text>
      <text class="nucleotide" x="61.465" y="71.588">G</text>
      <text class="nucleotide" x="48.563" y="63.354">U</text>
      <text class="nucleotide" x="33.311" y="62.071">U</text>
      <text class="nucleotide" x="19.214" y="68.032">G</text>
      <text class="nucleotide" x="9.512" y="79.870">G</text>
      <text class="nucleotide" x="6.434" y="94.862">U</text>
      <text class="nucleotide" x="10.686" y="109.565">G</text>
      <text class="nucleotide" x="21.293" y="120.600">U</text>
      <text class="nucleotide" x="35.816" y="125.430">G</text>
      <text class="nucleotide" x="50.919" y="122.946">G</text>
      <text class="nucleotide" x="63.130" y="113.719">U</text>
      <text class="nucleotide" x="69.645" y="99.869">U</text>
      <text class="nucleotide" x="68.965" y="84.579">G</text>
      <text class="nucleotide" x="81.955" y="77.079">G</text>
      <text class="nucleotide" x="95.113" y="83.802">U</text>
      <text class="nucleotide" x="109.819" y="82.356">U</text>
      <text class="nucleotide" x="121.416" y="73.198">U</text>
      <text class="nucleotide" x="126.232" y="59.228">U</text>
      <text class="nucleotide" x="122.742" y="44.870">U</text>
      <text class="nucleotide" x="112.052" y="34.668">U</text>
      <text class="nucleotide" x="97.546" y="31.854">U</text>
      <text class="nucleotide" x="83.817" y="37.319">U</text>
    </g>
  </g>
<script type="text/ecmascript">
<![CDATA[
  let sequence = "GGUUGGUGUGGUUGGUUUUUUUU";
  let structure = "++..++...++..+~........";
  const basepairs = [
];
  const coords = [
    { x: 74.455, y: 64.088 },
    { x: 61.465, y: 71.588 },
    { x: 48.563, y: 63.354 },
    { x: 33.311, y: 62.071 },
    { x: 19.214, y: 68.032 },
    { x:  9.512, y: 79.870 },
    { x:  6.434, y: 94.862 },
    { x: 10.686, y: 109.565 },
    { x: 21.293, y: 120.600 },
    { x: 35.816, y: 125.430 },
    { x: 50.919, y: 122.946 },
    { x: 63.130, y: 113.719 },
    { x: 69.645, y: 99.869 },
    { x: 68.965, y: 84.579 },
    { x: 81.955, y: 77.079 },
    { x: 95.113, y: 83.802 },
    { x: 109.819, y: 82.356 },
    { x: 121.416, y: 73.198 },
    { x: 126.232, y: 59.228 },
    { x: 122.742, y: 44.870 },
    { x: 112.052, y: 34.668 },
    { x: 97.546, y: 31.854 },
    { x: 83.817, y: 37.319 }];
]]>
</script>
</svg>
