<?xml version="1.0" encoding="UTF-8" standalone="yes" ?>
<svg xmlns="http://www.w3.org/2000/svg" height="452" width="452">
  <script type="text/ecmascript">
    <![CDATA[
      var shown = 1;
      function click() {
        var seq = document.getElementById("seq");
        if (shown==1) {
          seq.setAttribute("style", "visibility: hidden");
          shown = 0;
        } else {
          seq.setAttribute("style", "visibility: visible");
          shown = 1;
        }
      }
    ]]>
  </script>
  <style type="text/css">
    <![CDATA[
      .nucleotide {
        font-family: SansSerif;
      }
      .backbone {
        stroke: grey;
        fill:   none;
        stroke-width: 1.5;
      }
      .basepairs {
        stroke: red;
        fill:   none;
        stroke-width: 2.5;
      }
    ]]>
  </style>

  <rect style="stroke: white; fill: white" height="452" x="0" y="0" width="452" onclick="click(evt)" />
  <g transform="scale(3.450382,3.450382) translate(-19.500000,17.500000)">
    <polyline class="backbone" id="outline" points="
      91.368,2.163
      88.899,16.959
      86.430,31.754
      83.961,46.550
      81.492,61.345
      67.931,69.131
      62.596,83.831
      68.007,98.503
      81.608,106.219
      96.977,103.337
      106.859,91.217
      106.586,75.582
      96.288,63.814
      98.756,49.018
      101.225,34.223
      103.694,19.428
      106.163,4.632
      108.632,-10.163
    " />
    <g id="pairs">
      <line class="basepairs" id="1,17" x1="91.36783" y1="2.16325" x2="106.16325" y2="4.63217" />
      <line class="basepairs" id="2,16" x1="88.89891" y1="16.95867" x2="103.69433" y2="19.42759" />
      <line class="basepairs" id="3,15" x1="86.42999" y1="31.75409" x2="101.22541" y2="34.22301" />
      <line class="basepairs" id="4,14" x1="83.96107" y1="46.54951" x2="98.75649" y2="49.01843" />
      <line class="basepairs" id="5,13" x1="81.49216" y1="61.34493" x2="96.28757" y2="63.81385" />
    </g>
    <g transform="translate(-4.6, 4)" id="seq">
      <text class="nucleotide" x="91.368" y="2.163">G</text>
      <text class="nucleotide" x="88.899" y="16.959">G</text>
      <text class="nucleotide" x="86.430" y="31.754">G</text>
      <text class="nucleotide" x="83.961" y="46.550">G</text>
      <text class="nucleotide" x="81.492" y="61.345">U</text>
      <text class="nucleotide" x="67.931" y="69.131">G</text>
      <text class="nucleotide" x="62.596" y="83.831">A</text>
      <text class="nucleotide" x="68.007" y="98.503">A</text>
      <text class="nucleotide" x="81.608" y="106.219">A</text>
      <text class="nucleotide" x="96.977" y="103.337">C</text>
      <text class="nucleotide" x="106.859" y="91.217">G</text>
      <text class="nucleotide" x="106.586" y="75.582">G</text>
      <text class="nucleotide" x="96.288" y="63.814">G</text>
      <text class="nucleotide" x="98.756" y="49.018">U</text>
      <text class="nucleotide" x="101.225" y="34.223">C</text>
      <text class="nucleotide" x="103.694" y="19.428">C</text>
      <text class="nucleotide" x="106.163" y="4.632">C</text>
      <text class="nucleotide" x="108.632" y="-10.163">G</text>
    </g>
  </g>
<script type="text/ecmascript">
<![CDATA[
  let sequence = "GGGGUGAAACGGGUCCCG";
  let structure = "(((((.......))))).";
  const basepairs = [
    { i: 1, j: 17, type: "cWW" },
    { i: 2, j: 16, type: "cWW" },
    { i: 3, j: 15, type: "cWW" },
    { i: 4, j: 14, type: "cWW" },
    { i: 5, j: 13, type: "cWW" }];
  const coords = [
    { x: 91.368, y:  2.163 },
    { x: 88.899, y: 16.959 },
    { x: 86.430, y: 31.754 },
    { x: 83.961, y: 46.550 },
    { x: 81.492, y: 61.345 },
    { x: 67.931, y: 69.131 },
    { x: 62.596, y: 83.831 },
    { x: 68.007, y: 98.503 },
    { x: 81.608, y: 106.219 },
    { x: 96.977, y: 103.337 },
    { x: 106.859, y: 91.217 },
    { x: 106.586, y: 75.582 },
    { x: 96.288, y: 63.814 },
    { x: 98.756, y: 49.018 },
    { x: 101.225, y: 34.223 },
    { x: 103.694, y: 19.428 },
    { x: 106.163, y:  4.632 },
    { x: 108.632, y: -10.163 }];
]]>
</script>
</svg>
