<?xml version="1.0" encoding="UTF-8" standalone="yes" ?>
<svg xmlns="http://www.w3.org/2000/svg" height="452" width="452">
  <script type="text/ecmascript">
    <![CDATA[
      var shown = 1;
      function click() {
        var seq = document.getElementById("seq");
        if (shown==1) {
          seq.setAttribute("style", "visibility: hidden");
          shown = 0;
        } else {
          seq.setAttribute("style", "visibility: visible");
          shown = 1;
        }
      }
    ]]>
  </script>
  <style type="text/css">
    <![CDATA[
      .nucleotide {
        font-family: SansSerif;
      }
      .backbone {
        stroke: grey;
        fill:   none;
        stroke-width: 1.5;
      }
      .basepairs {
        stroke: red;
        fill:   none;
        stroke-width: 2.5;
      }
    ]]>
  </style>

  <rect style="stroke: white; fill: white" height="452" x="0" y="0" width="452" onclick="click(evt)" />
  <g transform="scale(3.476923,3.476923) translate(-2.500000,-24.000000)">
    <polyline class="backbone" id="outline" points="
      73.833,80.213
      59.870,85.693
      45.907,91.173
      31.523,84.624
      16.751,90.242
      10.355,104.694
      16.128,119.406
      30.647,125.649
      45.297,119.720
      51.387,105.136
      65.350,99.656
      79.313,94.176
      91.322,102.785
      106.079,103.547
      118.911,96.220
      125.756,83.124
      124.445,68.406
      115.395,56.725
      101.470,51.781
      87.080,55.138
    " />
    <g id="pairs">
      <line class="basepairs" id="1,12" x1="73.83284" y1="80.21291" x2="79.31295" y2="94.17601" />
      <line class="basepairs" id="2,11" x1="59.86973" y1="85.69302" x2="65.34985" y2="99.65613" />
      <line class="basepairs" id="3,10" x1="45.90663" y1="91.17314" x2="51.38674" y2="105.13625" />
    </g>
    <g transform="translate(-4.6, 4)" id="seq">
      <text class="nucleotide" x="73.833" y="80.213">U</text>
      <text class="nucleotide" x="59.870" y="85.693">G</text>
      <text class="nucleotide" x="45.907" y="91.173">G</text>
      <text class="nucleotide" x="31.523" y="84.624">A</text>
      <text class="nucleotide" x="16.751" y="90.242">U</text>
      <text class="nucleotide" x="10.355" y="104.694">A</text>
      <text class="nucleotide" x="16.128" y="119.406">C</text>
      <text class="nucleotide" x="30.647" y="125.649">G</text>
      <text class="nucleotide" x="45.297" y="119.720">G</text>
      <text class="nucleotide" x="51.387" y="105.136">C</text>
      <text class="nucleotide" x="65.350" y="99.656">C</text>
      <text class="nucleotide" x="79.313" y="94.176">G</text>
      <text class="nucleotide" x="91.322" y="102.785">G</text>
      <text class="nucleotide" x="106.079" y="103.547">G</text>
      <text class="nucleotide" x="118.911" y="96.220">U</text>
      <text class="nucleotide" x="125.756" y="83.124">A</text>
      <text class="nucleotide" x="124.445" y="68.406">G</text>
      <text class="nucleotide" x="115.395" y="56.725">A</text>
      <text class="nucleotide" x="101.470" y="51.781">U</text>
      <text class="nucleotide" x="87.080" y="55.138">A</text>
    </g>
  </g>
<script type="text/ecmascript">
<![CDATA[
  let sequence = "UGGAUACGGCCGGGUAGAUA";
  let structure = "(((......)))........";
  const basepairs = [
    { i: 1, j: 12, type: "cWW" },
    { i: 2, j: 11, type: "cWW" },
    { i: 3, j: 10, type: "cWW" }];
  const coords = [
    { x: 73.833, y: 80.213 },
    { x: 59.870, y: 85.693 },
    { x: 45.907, y: 91.173 },
    { x: 31.523, y: 84.624 },
    { x: 16.751, y: 90.242 },
    { x: 10.355, y: 104.694 },
    { x: 16.128, y: 119.406 },
    { x: 30.647, y: 125.649 },
    { x: 45.297, y: 119.720 },
    { x: 51.387, y: 105.136 },
    { x: 65.350, y: 99.656 },
    { x: 79.313, y: 94.176 },
    { x: 91.322, y: 102.785 },
    { x: 106.079, y: 103.547 },
    { x: 118.911, y: 96.220 },
    { x: 125.756, y: 83.124 },
    { x: 124.445, y: 68.406 },
    { x: 115.395, y: 56.725 },
    { x: 101.470, y: 51.781 },
    { x: 87.080, y: 55.138 }];
]]>
</script>
</svg>
