<?xml version="1.0" encoding="UTF-8" standalone="yes" ?>
<svg xmlns="http://www.w3.org/2000/svg" height="452" width="452">
  <script type="text/ecmascript">
    <![CDATA[
      var shown = 1;
      function click() {
        var seq = document.getElementById("seq");
        if (shown==1) {
          seq.setAttribute("style", "visibility: hidden");
          shown = 0;
        } else {
          seq.setAttribute("style", "visibility: visible");
          shown = 1;
        }
      }
    ]]>
  </script>
  <style type="text/css">
    <![CDATA[
      .nucleotide {
        font-family: SansSerif;
      }
      .backbone {
        stroke: grey;
        fill:   none;
        stroke-width: 1.5;
      }
      .basepairs {
        stroke: red;
        fill:   none;
        stroke-width: 2.5;
      }
    ]]>
  </style>

  <rect style="stroke: white; fill: white" height="452" x="0" y="0" width="452" onclick="click(evt)" />
  <g transform="scale(2.878981,2.878981) translate(7.500000,-21.000000)">
    <polyline class="backbone" id="outline" points="
      59.633,84.266
      44.861,81.662
      37.199,68.030
      22.549,62.560
      7.829,67.835
      -0.013,81.365
      2.728,96.761
      14.757,106.753
      30.394,106.623
      42.256,96.434
      57.028,99.039
      59.631,113.729
      67.101,126.644
      78.536,136.227
      92.558,141.323
      107.478,141.316
      121.496,136.209
      132.923,126.617
      140.381,113.695
      142.972,99.002
      140.383,84.309
      132.926,71.387
      121.500,61.793
      107.482,56.685
      92.563,56.677
      78.540,61.771
    " />
    <g id="pairs">
    </g>
    <g transform="translate(-4.6, 4)" id="seq">
      <text class="nucleotide" x="59.633" y="84.266">G</text>
      <text class="nucleotide" x="44.861" y="81.662">G</text>
      <text class="nucleotide" x="37.199" y="68.030">U</text>
      <text class="nucleotide" x="22.549" y="62.560">G</text>
      <text class="nucleotide" x="7.829" y="67.835">G</text>
      <text class="nucleotide" x="-0.013" y="81.365">U</text>
      <text class="nucleotide" x="2.728" y="96.761">G</text>
      <text class="nucleotide" x="14.757" y="106.753">G</text>
      <text class="nucleotide" x="30.394" y="106.623">U</text>
      <text class="nucleotide" x="42.256" y="96.434">G</text>
      <text class="nucleotide" x="57.028" y="99.039">G</text>
      <text class="nucleotide" x="59.631" y="113.729">U</text>
      <text class="nucleotide" x="67.101" y="126.644">U</text>
      <text class="nucleotide" x="78.536" y="136.227">G</text>
      <text class="nucleotide" x="92.558" y="141.323">U</text>
      <text class="nucleotide" x="107.478" y="141.316">G</text>
      <text class="nucleotide" x="121.496" y="136.209">G</text>
      <text class="nucleotide" x="132.923" y="126.617">U</text>
      <text class="nucleotide" x="140.381" y="113.695">G</text>
      <text class="nucleotide" x="142.972" y="99.002">G</text>
      <text class="nucleotide" x="140.383" y="84.309">U</text>
      <text class="nucleotide" x="132.926" y="71.387">G</text>
      <text class="nucleotide" x="121.500" y="61.793">G</text>
      <text class="nucleotide" x="107.482" y="56.685">U</text>
      <text class="nucleotide" x="92.563" y="56.677">G</text>
      <text class="nucleotide" x="78.540" y="61.771">C</text>
    </g>
  </g>
<script type="text/ecmascript">
<![CDATA[
  let sequence = "GGUGGUGGUGGUUGUGGUGGUGGUGC";
  let structure = "++.++.++.+~...............";
  const basepairs = [
];
  const coords = [
    { x: 59.633, y: 84.266 },
    { x: 44.861, y: 81.662 },
    { x: 37.199, y: 68.030 },
    { x: 22.549, y: 62.560 },
    { x:  7.829, y: 67.835 },
    { x: -0.013, y: 81.365 },
    { x:  2.728, y: 96.761 },
    { x: 14.757, y: 106.753 },
    { x: 30.394, y: 106.623 },
    { x: 42.256, y: 96.434 },
    { x: 57.028, y: 99.039 },
    { x: 59.631, y: 113.729 },
    { x: 67.101, y: 126.644 },
    { x: 78.536, y: 136.227 },
    { x: 92.558, y: 141.323 },
    { x: 107.478, y: 141.316 },
    { x: 121.496, y: 136.209 },
    { x: 132.923, y: 126.617 },
    { x: 140.381, y: 113.695 },
    { x: 142.972, y: 99.002 },
    { x: 140.383, y: 84.309 },
    { x: 132.926, y: 71.387 },
    { x: 121.500, y: 61.793 },
    { x: 107.482, y: 56.685 },
    { x: 92.563, y: 56.677 },
    { x: 78.540, y: 61.771 }];
]]>
</script>
</svg>
