<?xml version="1.0" encoding="UTF-8" standalone="yes" ?>
<svg xmlns="http://www.w3.org/2000/svg" height="452" width="452">
  <script type="text/ecmascript">
    <![CDATA[
      var shown = 1;
      function click() {
        var seq = document.getElementById("seq");
        if (shown==1) {
          seq.setAttribute("style", "visibility: hidden");
          shown = 0;
        } else {
          seq.setAttribute("style", "visibility: visible");
          shown = 1;
        }
      }
    ]]>
  </script>
  <style type="text/css">
    <![CDATA[
      .nucleotide {
        font-family: SansSerif;
      }
      .backbone {
        stroke: grey;
        fill:   none;
        stroke-width: 1.5;
      }
      .basepairs {
        stroke: red;
        fill:   none;
        stroke-width: 2.5;
      }
    ]]>
  </style>

  <rect style="stroke: white; fill: white" height="452" x="0" y="0" width="452" onclick="click(evt)" />
  <g transform="scale(3.476923,3.476923) translate(-34.500000,6.500000)">
    <polyline class="backbone" id="outline" points="
      86.220,0.515
      78.855,13.190
      81.332,27.638
      92.500,37.134
      92.500,52.134
      78.918,59.191
      70.181,71.757
      68.296,86.946
      73.696,101.267
      85.141,111.430
      100.000,115.098
      114.859,111.430
      126.304,101.267
      131.704,86.946
      129.819,71.757
      121.082,59.191
      107.500,52.134
      107.500,37.134
      118.668,27.638
      121.145,13.190
      113.780,0.515
    " />
    <g id="pairs">
    </g>
    <g transform="translate(-4.6, 4)" id="seq">
      <text class="nucleotide" x="86.220" y="0.515">U</text>
      <text class="nucleotide" x="78.855" y="13.190">A</text>
      <text class="nucleotide" x="81.332" y="27.638">U</text>
      <text class="nucleotide" x="92.500" y="37.134">G</text>
      <text class="nucleotide" x="92.500" y="52.134">G</text>
      <text class="nucleotide" x="78.918" y="59.191">U</text>
      <text class="nucleotide" x="70.181" y="71.757">U</text>
      <text class="nucleotide" x="68.296" y="86.946">G</text>
      <text class="nucleotide" x="73.696" y="101.267">G</text>
      <text class="nucleotide" x="85.141" y="111.430">U</text>
      <text class="nucleotide" x="100.000" y="115.098">G</text>
      <text class="nucleotide" x="114.859" y="111.430">U</text>
      <text class="nucleotide" x="126.304" y="101.267">G</text>
      <text class="nucleotide" x="131.704" y="86.946">G</text>
      <text class="nucleotide" x="129.819" y="71.757">U</text>
      <text class="nucleotide" x="121.082" y="59.191">U</text>
      <text class="nucleotide" x="107.500" y="52.134">G</text>
      <text class="nucleotide" x="107.500" y="37.134">G</text>
      <text class="nucleotide" x="118.668" y="27.638">A</text>
      <text class="nucleotide" x="121.145" y="13.190">U</text>
      <text class="nucleotide" x="113.780" y="0.515">A</text>
    </g>
  </g>
<script type="text/ecmascript">
<![CDATA[
  let sequence = "UAUGGUUGGUGUGGUUGGAUA";
  let structure = "...++..++...++..+~...";
  const basepairs = [
];
  const coords = [
    { x: 86.220, y:  0.515 },
    { x: 78.855, y: 13.190 },
    { x: 81.332, y: 27.638 },
    { x: 92.500, y: 37.134 },
    { x: 92.500, y: 52.134 },
    { x: 78.918, y: 59.191 },
    { x: 70.181, y: 71.757 },
    { x: 68.296, y: 86.946 },
    { x: 73.696, y: 101.267 },
    { x: 85.141, y: 111.430 },
    { x: 100.000, y: 115.098 },
    { x: 114.859, y: 111.430 },
    { x: 126.304, y: 101.267 },
    { x: 131.704, y: 86.946 },
    { x: 129.819, y: 71.757 },
    { x: 121.082, y: 59.191 },
    { x: 107.500, y: 52.134 },
    { x: 107.500, y: 37.134 },
    { x: 118.668, y: 27.638 },
    { x: 121.145, y: 13.190 },
    { x: 113.780, y:  0.515 }];
]]>
</script>
</svg>
