<?xml version="1.0" encoding="UTF-8" standalone="yes" ?>
<svg xmlns="http://www.w3.org/2000/svg" height="452" width="452">
  <script type="text/ecmascript">
    <![CDATA[
      var shown = 1;
      function click() {
        var seq = document.getElementById("seq");
        if (shown==1) {
          seq.setAttribute("style", "visibility: hidden");
          shown = 0;
        } else {
          seq.setAttribute("style", "visibility: visible");
          shown = 1;
        }
      }
    ]]>
  </script>
  <style type="text/css">
    <![CDATA[
      .nucleotide {
        font-family: SansSerif;
      }
      .backbone {
        stroke: grey;
        fill:   none;
        stroke-width: 1.5;
      }
      .basepairs {
        stroke: red;
        fill:   none;
        stroke-width: 2.5;
      }
    ]]>
  </style>

  <rect style="stroke: white; fill: white" height="452" x="0" y="0" width="452" onclick="click(evt)" />
  <g transform="scale(3.735537,3.735537) translate(-33.500000,-10.500000)">
    <polyline class="backbone" id="outline" points="
      80.978,23.895
      74.214,37.032
      75.614,51.742
      84.735,63.368
      79.864,77.555
      74.994,91.742
      62.278,102.099
      65.156,118.243
      80.667,123.568
      92.854,112.595
      89.181,96.613
      94.051,82.426
      98.922,68.238
      113.260,64.667
      123.400,53.918
      126.131,39.396
      120.588,25.699
      108.527,17.162
    " />
    <g id="pairs">
      <line class="basepairs" id="4,13" x1="84.73473" y1="63.36794" x2="98.92199" y2="68.23843" />
      <line class="basepairs" id="5,12" x1="79.86423" y1="77.55520" x2="94.05149" y2="82.42569" />
      <line class="basepairs" id="6,11" x1="74.99374" y1="91.74245" x2="89.18100" y2="96.61295" />
    </g>
    <g transform="translate(-4.6, 4)" id="seq">
      <text class="nucleotide" x="80.978" y="23.895">U</text>
      <text class="nucleotide" x="74.214" y="37.032">C</text>
      <text class="nucleotide" x="75.614" y="51.742">G</text>
      <text class="nucleotide" x="84.735" y="63.368">A</text>
      <text class="nucleotide" x="79.864" y="77.555">C</text>
      <text class="nucleotide" x="74.994" y="91.742">G</text>
      <text class="nucleotide" x="62.278" y="102.099">A</text>
      <text class="nucleotide" x="65.156" y="118.243">A</text>
      <text class="nucleotide" x="80.667" y="123.568">U</text>
      <text class="nucleotide" x="92.854" y="112.595">A</text>
      <text class="nucleotide" x="89.181" y="96.613">C</text>
      <text class="nucleotide" x="94.051" y="82.426">G</text>
      <text class="nucleotide" x="98.922" y="68.238">U</text>
      <text class="nucleotide" x="113.260" y="64.667">A</text>
      <text class="nucleotide" x="123.400" y="53.918">U</text>
      <text class="nucleotide" x="126.131" y="39.396">U</text>
      <text class="nucleotide" x="120.588" y="25.699">A</text>
      <text class="nucleotide" x="108.527" y="17.162">U</text>
    </g>
  </g>
<script type="text/ecmascript">
<![CDATA[
  let sequence = "UCGACGAAUACGUAUUAU";
  let structure = "...(((....))).....";
  const basepairs = [
    { i: 4, j: 13, type: "cWW" },
    { i: 5, j: 12, type: "cWW" },
    { i: 6, j: 11, type: "cWW" }];
  const coords = [
    { x: 80.978, y: 23.895 },
    { x: 74.214, y: 37.032 },
    { x: 75.614, y: 51.742 },
    { x: 84.735, y: 63.368 },
    { x: 79.864, y: 77.555 },
    { x: 74.994, y: 91.742 },
    { x: 62.278, y: 102.099 },
    { x: 65.156, y: 118.243 },
    { x: 80.667, y: 123.568 },
    { x: 92.854, y: 112.595 },
    { x: 89.181, y: 96.613 },
    { x: 94.051, y: 82.426 },
    { x: 98.922, y: 68.238 },
    { x: 113.260, y: 64.667 },
    { x: 123.400, y: 53.918 },
    { x: 126.131, y: 39.396 },
    { x: 120.588, y: 25.699 },
    { x: 108.527, y: 17.162 }];
]]>
</script>
</svg>
