<?xml version="1.0" encoding="UTF-8" standalone="yes" ?>
<svg xmlns="http://www.w3.org/2000/svg" height="452" width="452">
  <script type="text/ecmascript">
    <![CDATA[
      var shown = 1;
      function click() {
        var seq = document.getElementById("seq");
        if (shown==1) {
          seq.setAttribute("style", "visibility: hidden");
          shown = 0;
        } else {
          seq.setAttribute("style", "visibility: visible");
          shown = 1;
        }
      }
    ]]>
  </script>
  <style type="text/css">
    <![CDATA[
      .nucleotide {
        font-family: SansSerif;
      }
      .backbone {
        stroke: grey;
        fill:   none;
        stroke-width: 1.5;
      }
      .basepairs {
        stroke: red;
        fill:   none;
        stroke-width: 2.5;
      }
    ]]>
  </style>

  <rect style="stroke: white; fill: white" height="452" x="0" y="0" width="452" onclick="click(evt)" />
  <g transform="scale(3.373134,3.373134) translate(-37.500000,-45.500000)">
    <polyline class="backbone" id="outline" points="
      104.529,72.147
      109.985,86.980
      103.477,100.495
      96.968,114.009
      89.468,127.000
      81.019,139.393
      66.017,146.017
      64.522,162.348
      78.071,171.586
      92.727,164.228
      93.412,147.843
      101.862,135.449
      109.685,130.231
      110.483,120.518
      116.991,107.003
      123.500,93.488
      138.498,88.506
      145.505,74.340
      140.364,59.395
      126.125,52.538
    " />
    <g id="pairs">
      <line class="basepairs" id="2,16" x1="109.98499" y1="86.98021" x2="123.49953" y2="93.48846" />
      <line class="basepairs" id="3,15" x1="103.47674" y1="100.49474" x2="116.99127" y2="107.00300" />
      <line class="basepairs" id="4,14" x1="96.96848" y1="114.00928" x2="110.48302" y2="120.51753" />
      <line class="basepairs" id="5,12" x1="89.46848" y1="126.99966" x2="101.86206" y2="135.44946" />
      <line class="basepairs" id="6,11" x1="81.01868" y1="139.39323" x2="93.41226" y2="147.84305" />
    </g>
    <g transform="translate(-4.6, 4)" id="seq">
      <text class="nucleotide" x="104.529" y="72.147">G</text>
      <text class="nucleotide" x="109.985" y="86.980">A</text>
      <text class="nucleotide" x="103.477" y="100.495">C</text>
      <text class="nucleotide" x="96.968" y="114.009">A</text>
      <text class="nucleotide" x="89.468" y="127.000">C</text>
      <text class="nucleotide" x="81.019" y="139.393">U</text>
      <text class="nucleotide" x="66.017" y="146.017">G</text>
      <text class="nucleotide" x="64.522" y="162.348">G</text>
      <text class="nucleotide" x="78.071" y="171.586">A</text>
      <text class="nucleotide" x="92.727" y="164.228">A</text>
      <text class="nucleotide" x="93.412" y="147.843">A</text>
      <text class="nucleotide" x="101.862" y="135.449">G</text>
      <text class="nucleotide" x="109.685" y="130.231">A</text>
      <text class="nucleotide" x="110.483" y="120.518">U</text>
      <text class="nucleotide" x="116.991" y="107.003">G</text>
      <text class="nucleotide" x="123.500" y="93.488">U</text>
      <text class="nucleotide" x="138.498" y="88.506">G</text>
      <text class="nucleotide" x="145.505" y="74.340">A</text>
      <text class="nucleotide" x="140.364" y="59.395">C</text>
      <text class="nucleotide" x="126.125" y="52.538">A</text>
    </g>
  </g>
<script type="text/ecmascript">
<![CDATA[
  let sequence = "GACACUGGAAAGAUGUGACA";
  let structure = ".(((((....)).)))....";
  const basepairs = [
    { i: 2, j: 16, type: "cWW" },
    { i: 3, j: 15, type: "cWW" },
    { i: 4, j: 14, type: "cWW" },
    { i: 5, j: 12, type: "cWW" },
    { i: 6, j: 11, type: "cWW" }];
  const coords = [
    { x: 104.529, y: 72.147 },
    { x: 109.985, y: 86.980 },
    { x: 103.477, y: 100.495 },
    { x: 96.968, y: 114.009 },
    { x: 89.468, y: 127.000 },
    { x: 81.019, y: 139.393 },
    { x: 66.017, y: 146.017 },
    { x: 64.522, y: 162.348 },
    { x: 78.071, y: 171.586 },
    { x: 92.727, y: 164.228 },
    { x: 93.412, y: 147.843 },
    { x: 101.862, y: 135.449 },
    { x: 109.685, y: 130.231 },
    { x: 110.483, y: 120.518 },
    { x: 116.991, y: 107.003 },
    { x: 123.500, y: 93.488 },
    { x: 138.498, y: 88.506 },
    { x: 145.505, y: 74.340 },
    { x: 140.364, y: 59.395 },
    { x: 126.125, y: 52.538 }];
]]>
</script>
</svg>
