<?xml version="1.0" encoding="UTF-8" standalone="yes" ?>
<svg xmlns="http://www.w3.org/2000/svg" height="452" width="452">
  <script type="text/ecmascript">
    <![CDATA[
      var shown = 1;
      function click() {
        var seq = document.getElementById("seq");
        if (shown==1) {
          seq.setAttribute("style", "visibility: hidden");
          shown = 0;
        } else {
          seq.setAttribute("style", "visibility: visible");
          shown = 1;
        }
      }
    ]]>
  </script>
  <style type="text/css">
    <![CDATA[
      .nucleotide {
        font-family: SansSerif;
      }
      .backbone {
        stroke: grey;
        fill:   none;
        stroke-width: 1.5;
      }
      .basepairs {
        stroke: red;
        fill:   none;
        stroke-width: 2.5;
      }
    ]]>
  </style>

  <rect style="stroke: white; fill: white" height="452" x="0" y="0" width="452" onclick="click(evt)" />
  <g transform="scale(4.185185,4.185185) translate(-16.500000,-16.500000)">
    <polyline class="backbone" id="outline" points="
      82.277,48.117
      71.670,58.723
      61.064,69.330
      45.759,66.769
      31.888,73.724
      24.783,87.519
      27.177,102.850
      38.150,113.823
      53.481,116.217
      67.276,109.112
      74.231,95.241
      71.670,79.936
      82.277,69.330
      92.883,58.723
      107.445,58.588
      117.679,48.226
      117.633,33.664
      107.336,23.367
      92.774,23.321
    " />
    <g id="pairs">
      <line class="basepairs" id="1,14" x1="82.27683" y1="48.11657" x2="92.88343" y2="58.72317" />
      <line class="basepairs" id="2,13" x1="71.67023" y1="58.72317" x2="82.27683" y2="69.32977" />
      <line class="basepairs" id="3,12" x1="61.06363" y1="69.32977" x2="71.67023" y2="79.93637" />
    </g>
    <g transform="translate(-4.6, 4)" id="seq">
      <text class="nucleotide" x="82.277" y="48.117">C</text>
      <text class="nucleotide" x="71.670" y="58.723">C</text>
      <text class="nucleotide" x="61.064" y="69.330">U</text>
      <text class="nucleotide" x="45.759" y="66.769">A</text>
      <text class="nucleotide" x="31.888" y="73.724">G</text>
      <text class="nucleotide" x="24.783" y="87.519">C</text>
      <text class="nucleotide" x="27.177" y="102.850">U</text>
      <text class="nucleotide" x="38.150" y="113.823">G</text>
      <text class="nucleotide" x="53.481" y="116.217">G</text>
      <text class="nucleotide" x="67.276" y="109.112">C</text>
      <text class="nucleotide" x="74.231" y="95.241">C</text>
      <text class="nucleotide" x="71.670" y="79.936">G</text>
      <text class="nucleotide" x="82.277" y="69.330">G</text>
      <text class="nucleotide" x="92.883" y="58.723">G</text>
      <text class="nucleotide" x="107.445" y="58.588">G</text>
      <text class="nucleotide" x="117.679" y="48.226">U</text>
      <text class="nucleotide" x="117.633" y="33.664">U</text>
      <text class="nucleotide" x="107.336" y="23.367">C</text>
      <text class="nucleotide" x="92.774" y="23.321">G</text>
    </g>
  </g>
<script type="text/ecmascript">
<![CDATA[
  let sequence = "CCUAGCUGGCCGGGGUUCG";
  let structure = "(((........))).....";
  const basepairs = [
    { i: 1, j: 14, type: "cWW" },
    { i: 2, j: 13, type: "cWW" },
    { i: 3, j: 12, type: "cWW" }];
  const coords = [
    { x: 82.277, y: 48.117 },
    { x: 71.670, y: 58.723 },
    { x: 61.064, y: 69.330 },
    { x: 45.759, y: 66.769 },
    { x: 31.888, y: 73.724 },
    { x: 24.783, y: 87.519 },
    { x: 27.177, y: 102.850 },
    { x: 38.150, y: 113.823 },
    { x: 53.481, y: 116.217 },
    { x: 67.276, y: 109.112 },
    { x: 74.231, y: 95.241 },
    { x: 71.670, y: 79.936 },
    { x: 82.277, y: 69.330 },
    { x: 92.883, y: 58.723 },
    { x: 107.445, y: 58.588 },
    { x: 117.679, y: 48.226 },
    { x: 117.633, y: 33.664 },
    { x: 107.336, y: 23.367 },
    { x: 92.774, y: 23.321 }];
]]>
</script>
</svg>
