<?xml version="1.0" encoding="UTF-8" standalone="yes" ?>
<svg xmlns="http://www.w3.org/2000/svg" height="452" width="452">
  <script type="text/ecmascript">
    <![CDATA[
      var shown = 1;
      function click() {
        var seq = document.getElementById("seq");
        if (shown==1) {
          seq.setAttribute("style", "visibility: hidden");
          shown = 0;
        } else {
          seq.setAttribute("style", "visibility: visible");
          shown = 1;
        }
      }
    ]]>
  </script>
  <style type="text/css">
    <![CDATA[
      .nucleotide {
        font-family: SansSerif;
      }
      .backbone {
        stroke: grey;
        fill:   none;
        stroke-width: 1.5;
      }
      .basepairs {
        stroke: red;
        fill:   none;
        stroke-width: 2.5;
      }
    ]]>
  </style>

  <rect style="stroke: white; fill: white" height="452" x="0" y="0" width="452" onclick="click(evt)" />
  <g transform="scale(2.973684,2.973684) translate(-52.500000,24.500000)">
    <polyline class="backbone" id="outline" points="
      104.916,-17.916
      90.357,-16.201
      80.287,-5.547
      79.394,9.085
      88.092,20.884
      102.334,24.359
      109.066,37.763
      115.798,51.168
      105.832,62.646
      101.022,77.066
      102.102,92.229
      108.906,105.822
      120.398,115.772
      134.824,120.563
      149.985,119.464
      163.569,112.641
      173.505,101.137
      178.277,86.704
      177.157,71.545
      170.317,57.970
      158.799,48.049
      144.361,43.296
      129.203,44.436
      122.471,31.031
      115.739,17.627
      121.456,4.128
    " />
    <g id="pairs">
    </g>
    <g transform="translate(-4.6, 4)" id="seq">
      <text class="nucleotide" x="104.916" y="-17.916">G</text>
      <text class="nucleotide" x="90.357" y="-16.201">C</text>
      <text class="nucleotide" x="80.287" y="-5.547">A</text>
      <text class="nucleotide" x="79.394" y="9.085">C</text>
      <text class="nucleotide" x="88.092" y="20.884">C</text>
      <text class="nucleotide" x="102.334" y="24.359">G</text>
      <text class="nucleotide" x="109.066" y="37.763">G</text>
      <text class="nucleotide" x="115.798" y="51.168">G</text>
      <text class="nucleotide" x="105.832" y="62.646">C</text>
      <text class="nucleotide" x="101.022" y="77.066">A</text>
      <text class="nucleotide" x="102.102" y="92.229">G</text>
      <text class="nucleotide" x="108.906" y="105.822">G</text>
      <text class="nucleotide" x="120.398" y="115.772">G</text>
      <text class="nucleotide" x="134.824" y="120.563">A</text>
      <text class="nucleotide" x="149.985" y="119.464">G</text>
      <text class="nucleotide" x="163.569" y="112.641">G</text>
      <text class="nucleotide" x="173.505" y="101.137">G</text>
      <text class="nucleotide" x="178.277" y="86.704">U</text>
      <text class="nucleotide" x="177.157" y="71.545">C</text>
      <text class="nucleotide" x="170.317" y="57.970">C</text>
      <text class="nucleotide" x="158.799" y="48.049">U</text>
      <text class="nucleotide" x="144.361" y="43.296">C</text>
      <text class="nucleotide" x="129.203" y="44.436">G</text>
      <text class="nucleotide" x="122.471" y="31.031">G</text>
      <text class="nucleotide" x="115.739" y="17.627">G</text>
      <text class="nucleotide" x="121.456" y="4.128">C</text>
    </g>
  </g>
<script type="text/ecmascript">
<![CDATA[
  let sequence = "GCACCGGGCAGGGAGGGUCCUCGGGC";
  let structure = ".....+++..+++.+++.....++~.";
  const basepairs = [
];
  const coords = [
    { x: 104.916, y: -17.916 },
    { x: 90.357, y: -16.201 },
    { x: 80.287, y: -5.547 },
    { x: 79.394, y:  9.085 },
    { x: 88.092, y: 20.884 },
    { x: 102.334, y: 24.359 },
    { x: 109.066, y: 37.763 },
    { x: 115.798, y: 51.168 },
    { x: 105.832, y: 62.646 },
    { x: 101.022, y: 77.066 },
    { x: 102.102, y: 92.229 },
    { x: 108.906, y: 105.822 },
    { x: 120.398, y: 115.772 },
    { x: 134.824, y: 120.563 },
    { x: 149.985, y: 119.464 },
    { x: 163.569, y: 112.641 },
    { x: 173.505, y: 101.137 },
    { x: 178.277, y: 86.704 },
    { x: 177.157, y: 71.545 },
    { x: 170.317, y: 57.970 },
    { x: 158.799, y: 48.049 },
    { x: 144.361, y: 43.296 },
    { x: 129.203, y: 44.436 },
    { x: 122.471, y: 31.031 },
    { x: 115.739, y: 17.627 },
    { x: 121.456, y:  4.128 }];
]]>
</script>
</svg>
