<?xml version="1.0" encoding="UTF-8" standalone="yes" ?>
<svg xmlns="http://www.w3.org/2000/svg" height="452" width="452">
  <script type="text/ecmascript">
    <![CDATA[
      var shown = 1;
      function click() {
        var seq = document.getElementById("seq");
        if (shown==1) {
          seq.setAttribute("style", "visibility: hidden");
          shown = 0;
        } else {
          seq.setAttribute("style", "visibility: visible");
          shown = 1;
        }
      }
    ]]>
  </script>
  <style type="text/css">
    <![CDATA[
      .nucleotide {
        font-family: SansSerif;
      }
      .backbone {
        stroke: grey;
        fill:   none;
        stroke-width: 1.5;
      }
      .basepairs {
        stroke: red;
        fill:   none;
        stroke-width: 2.5;
      }
    ]]>
  </style>

  <rect style="stroke: white; fill: white" height="452" x="0" y="0" width="452" onclick="click(evt)" />
  <g transform="scale(2.954248,2.954248) translate(-17.500000,-22.500000)">
    <polyline class="backbone" id="outline" points="
      81.883,29.968
      66.636,36.005
      64.508,52.266
      77.689,62.022
      83.211,75.969
      88.733,89.916
      91.543,104.650
      91.543,119.650
      78.911,128.661
      74.020,143.387
      78.751,158.166
      91.285,167.314
      106.802,167.314
      119.336,158.166
      124.067,143.387
      119.176,128.661
      106.543,119.650
      106.543,104.650
      110.136,100.599
      111.109,94.667
      108.556,88.570
      102.679,84.394
      97.157,70.447
      91.636,56.500
    " />
    <g id="pairs">
      <line class="basepairs" id="4,24" x1="77.68898" y1="62.02234" x2="91.63563" y2="56.50046" />
      <line class="basepairs" id="5,23" x1="83.21085" y1="75.96898" x2="97.15749" y2="70.44711" />
      <line class="basepairs" id="6,22" x1="88.73271" y1="89.91563" x2="102.67936" y2="84.39376" />
    </g>
    <g transform="translate(-4.6, 4)" id="seq">
      <text class="nucleotide" x="81.883" y="29.968">G</text>
      <text class="nucleotide" x="66.636" y="36.005">U</text>
      <text class="nucleotide" x="64.508" y="52.266">U</text>
      <text class="nucleotide" x="77.689" y="62.022">U</text>
      <text class="nucleotide" x="83.211" y="75.969">U</text>
      <text class="nucleotide" x="88.733" y="89.916">C</text>
      <text class="nucleotide" x="91.543" y="104.650">G</text>
      <text class="nucleotide" x="91.543" y="119.650">G</text>
      <text class="nucleotide" x="78.911" y="128.661">G</text>
      <text class="nucleotide" x="74.020" y="143.387">G</text>
      <text class="nucleotide" x="78.751" y="158.166">G</text>
      <text class="nucleotide" x="91.285" y="167.314">C</text>
      <text class="nucleotide" x="106.802" y="167.314">U</text>
      <text class="nucleotide" x="119.336" y="158.166">G</text>
      <text class="nucleotide" x="124.067" y="143.387">G</text>
      <text class="nucleotide" x="119.176" y="128.661">U</text>
      <text class="nucleotide" x="106.543" y="119.650">G</text>
      <text class="nucleotide" x="106.543" y="104.650">G</text>
      <text class="nucleotide" x="110.136" y="100.599">U</text>
      <text class="nucleotide" x="111.109" y="94.667">U</text>
      <text class="nucleotide" x="108.556" y="88.570">G</text>
      <text class="nucleotide" x="102.679" y="84.394">G</text>
      <text class="nucleotide" x="97.157" y="70.447">G</text>
      <text class="nucleotide" x="91.636" y="56.500">G</text>
    </g>
  </g>
<script type="text/ecmascript">
<![CDATA[
  let sequence = "GUUUUCGGGGGCUGGUGGUUGGGG";
  let structure = "...(((++.++..++.+~...)))";
  const basepairs = [
    { i: 4, j: 24, type: "cWW" },
    { i: 5, j: 23, type: "cWW" },
    { i: 6, j: 22, type: "cWW" }];
  const coords = [
    { x: 81.883, y: 29.968 },
    { x: 66.636, y: 36.005 },
    { x: 64.508, y: 52.266 },
    { x: 77.689, y: 62.022 },
    { x: 83.211, y: 75.969 },
    { x: 88.733, y: 89.916 },
    { x: 91.543, y: 104.650 },
    { x: 91.543, y: 119.650 },
    { x: 78.911, y: 128.661 },
    { x: 74.020, y: 143.387 },
    { x: 78.751, y: 158.166 },
    { x: 91.285, y: 167.314 },
    { x: 106.802, y: 167.314 },
    { x: 119.336, y: 158.166 },
    { x: 124.067, y: 143.387 },
    { x: 119.176, y: 128.661 },
    { x: 106.543, y: 119.650 },
    { x: 106.543, y: 104.650 },
    { x: 110.136, y: 100.599 },
    { x: 111.109, y: 94.667 },
    { x: 108.556, y: 88.570 },
    { x: 102.679, y: 84.394 },
    { x: 97.157, y: 70.447 },
    { x: 91.636, y: 56.500 }];
]]>
</script>
</svg>
